/* XPM */
static char *_c3b461b78ee4628a144c52d5ef88fa9oMCibcI0qBwfwZvd[] = {
/* columns rows colors chars-per-pixel */
"85 91 92 1 ",
"  c #010000",
". c #0C0000",
"X c #140000",
"o c #1B0000",
"O c #240003",
"+ c #29000D",
"@ c #2D0015",
"# c #2F0018",
"$ c #32011D",
"% c #340520",
"& c #360B21",
"* c #391626",
"= c #3A1927",
"- c #3C1F2A",
"; c #3E232C",
": c #40272E",
"> c #40282F",
", c #432C31",
"< c #473336",
"1 c #483537",
"2 c #493638",
"3 c #4C3C3C",
"4 c #4F403F",
"5 c #534643",
"6 c #564A46",
"7 c #5C514C",
"8 c #635B53",
"9 c #6A635A",
"0 c #6E685E",
"q c #726D62",
"w c #757065",
"e c #797669",
"r c #7C796C",
"t c #868575",
"y c #888777",
"u c #888778",
"i c #8A897A",
"p c #959583",
"a c #999A87",
"s c #9C9D8A",
"d c #9EA08D",
"f c #A1A38F",
"g c #A3A591",
"h c #A6A894",
"j c #A9AC96",
"k c #AEB19B",
"l c #B2B69F",
"z c #B3B7A0",
"x c #B5B9A2",
"c c #BABFA7",
"v c #BBC0A7",
"b c #C4C9AF",
"n c #C5CBB1",
"m c #CBD1B6",
"M c #CFD5BA",
"N c #D1D7BC",
"B c #D2D9BD",
"V c #D6DDC1",
"C c #D8DFC3",
"Z c #D9E1C3",
"A c #D9E1C4",
"S c #DAE2C4",
"D c #DEE6C8",
"F c #DFE7C9",
"G c #E0E8CA",
"H c #E1E9CB",
"J c #E4ECCE",
"K c #E4EDCE",
"L c #E7EFD0",
"P c #E8F0D1",
"I c #E9F2D2",
"U c #EAF3D3",
"Y c #EBF3D4",
"T c #EBF4D4",
"R c #ECF4D4",
"E c #ECF4D5",
"W c #EDF6D6",
"Q c #EEF7D7",
"! c #EEF8D7",
"~ c #EFF8D7",
"^ c #EFF8D8",
"/ c #F1FAD9",
"( c #F2FCDB",
") c #F3FDDB",
"_ c #F3FDDC",
"` c #F4FDDC",
"' c #F4FEDC",
"] c #F8FFE0",
"[ c #FAFFE2",
"{ c #FBFFE3",
"} c #FDFFE4",
"| c #FEFFE6",
/* pixels */
";;;;;;;;;;;;;;;;;;;;;;;;;;;;;;;;;;;;;;;;;;;;;;;;;;;;;;;;;;;;;;;;;;;;;;;;;;;;;;;;-:;;;",
";;;;;;;;;;;;;;;;;;;;;;;;;;;;;;;;;;;;;;;;;;;;;;;;;;;;;;;;;;;;;;;;;;;;;;;;;;;;;;;;;;;;;",
";;;;;;;;;;;;;;;;;;;;;;;;;;;;;;;;;;;;;;;;;;;;;;;;;;;;;;;;;;;;;;;;;;;;;:;;;;;;;;;;;;;;;",
";;;;;;;;;;;;;;;;;;;;;;;,,,,,,,,,,,,,,,,,,,,,,,,,,,,,,,,,;;;;;;;;;;;;;-;;-;;;;;;;;;;;;",
";;;;;;;;;;;;;;;;;;;;;;;OooooooooooooooooooooooooooooooX%;;;;;;;;;;;:;;-;:;;;;;;;;;;;;",
";;;;;;;;;;;;;;;;;;;;;;=qrereererrererrrrrerrrererrrerer7&;;;;;;;;;;-;;:;;;;;;;;;;;;;;",
";;;;;;;;;;;;;;;;;;;;;<oF[))))_)))/))_^^__)/))))/__)))^[g 2;;;;;;;;;;;;;;;;;;;-:;;;;;;",
";;;;;;;;;;;;;;;;;;;;;>oA!TTTTTTTTT!TE!EEEETTTT!ETETTYY_d 1;;;;;;;;;;;;;;;;;;;;;;;;:-;",
";;;;;;;;;;;;;;;;;;;;;,oA)EE!E!E!^QE^T^T^T^T^!E!EE!E^EU`d <;;;;;;;;;;;;;;;;;:;;;;;;;;;",
";;;;;;;;;;;;;;;;;;;;;,oZ/E!E!E!EQT^T^T^T^T^TE!E!!E!E^U[d <;;;;;;;;-:;;;;;;;-;;;;;;;;;",
";;;;;;;;;;;;;;;;;<<<<2@A^TEEETEEYQTTT^T^^ETTTETTTEEETU`d 3<<<,;;;;;;;;;;;;;;;;;;;;;-;",
";;;;;;;;;;;;;;;;%    . F[)`````_____^T^TTT_`____````_/}s o   .;;;;;;;;;;;;;;;;;;;;;:;",
";;;;;;;;;;;;;;,orANBBNBstuuuiiiuuuiuP^^^E_neiuiiiuuiuitvVBBBVn+;;;;;;;;;;;;;;-:;;;;;;",
";;;;;;;;;;;;;;< u[))))[q X . .   . XJ^ETE`k O.     . O n[/)__Ho,;;;;;;;;;;;;;;;;;;;;-",
";;;;;;;;;;;;;;,.u)TTTT^e@2<,,,,,,<,2J^T^E`x 4<;<,<<,,3 b)UTT)Ao,:;;;;;;;;:;;;;;;;;;;:",
";;;;;;;;;;;;;;, u`TT!T^eo,;;;;:;;;-,J^EET`z 2;;;;;;;;< n_TTT)Ao,-;;;;;;;;-;;;;;;;;;;;",
";;;;;;;;;;;;;;< u_EE!E)eo,:;;;;;;;;:K!EEE`l 1;;;;;;;;< b_T!T)Ao,-:;;;;;;;:;;;;;;;;;;;",
";;;;;;;;;;;;;;,.u_E!EE)eo,;;;;;;;:-,K/E!E`l 1;;;;;;;;2 n`TE!^Ao,:-;;;;;;;-;;;;;;;;;;;",
";;;;;;;;;;;;;;, u`EEEE)eo,-:;;;;;;-:UEE!T`l 1;;;;;;;;< b`T^E'So,-:-:;;;;;;;;;;;;;;;;;",
";;;;;;;;;;;;;;< u_EE!T/eO>:-;;;;;;;,K~EEU[z 1;;;;;;;;< b`EEE'Ao,:-:-;;;;;;;;;:-;;;;;;",
";;;;;;;;;;;;;;, u`EEEE)eo,::;;;;;;-,K/E!U[l 1;;;;;;;;2 b`T!E/Zo,;;;;;;;;;;;;;;;;;;;;;",
";;;;;;;;;;;;;;< u`E!!E)eo,:-;;;;;;-,K^EET`z 1;;;;;;;;< b`TE!/Zo,;;;;;;;;;;;:;;;;;;;;;",
";;;;;;;;;;;;;;<.u`EE!E/eo,;;;;;;;;-,K/EEE`l 1;;;;;;;;< n`EEE)So,;;;;;;;;;;;-;;;;;;;;;",
";;;;;;;;;;;;;;, u`T!ET/eo,;;;;;;;;-:K/E!T_z <;;;;;;;;< n`EET)Ao,;;>;;;;;;;;;;;;;;;;;;",
";;;;;;;;;;;;;;, u`E!EE)eo,;;;;;;;;-,K/EET_z 2;;;;;;;;2 b`E!E)Zo,;;;;;;;;;;;;;;;;;;;;;",
";;;;;;;;;;;;;;< u`EE!E)eo,;;;;;;;;->JEEEU[z 2;;;;;;;;< b`EEE)Zo,;;;;;;;;;;;;;;;;;;;;;",
";;;;;;;;;;;;;;,.u`E!!E/eo,;;;;;;;;;,K/~ET`z <;;;;;;;;< b`E!!)So,;;;;;;;;;;;;;;;;;;;;;",
";;;;;;;;;;;;;;< u`EEEE/eo,;;;;;;;;-,K/~ET`l 2;;;;;;;;2 b`EEE)Ao,;;;-;;;;;;;;;;;;;;;;;",
";;;;;;;;;;;;;;< u`TEEE)eO,;;;;;;;;-,K^!ET`z 1;;;;;;;;1 b`TET)Zo,;;;;;;;;;;;;;;;;;;;;;",
";;;;;;;;;;;;;;,.y)UYTT^r@2<<<<<<<1<2KQ~EE`x 4<<<<<<<14 b)TTT!Zo,;;;;;;;;;;;;;;;;;;;;;",
";;;;;;;;;;;;;;< i[)_`_[0            J/EET`k .        . n})`_[Fo,;;;;;;;;;;;;;;;;;;;;;",
";;;;;;;;;;;;;;>OwmbnnnnhsfddddddddsfL~E~T)mpfdddddddddacnbnnnz@,;;;;;;;;;;;;;;;;;;;;;",
";;;;;;;;;;;;;;;,$      H[_[```[`````^/E^!E/[)'``[[)`__}s      ;;;;;;;;;;;;;;;;;;;;;;;",
";;;;;;;;;;;;;;;;;<2<13$A^UUTTUUTTTTTEE!EE!ETTUTTUUEETT_g.3<<2<;;;;;;;;;;;;;;;;;;;;;;;",
";;;;;;;;;;;;;;;;;;;;;,oA^T!E^E!EE!E!E!E!!E!E^T^T!ETE^T`s 2;;;;;;;;;;;;;;;;;;;;;;;;;;;",
";;;;;;;;;;;;;;;;;;;;;,oA^^E!E^E!!E!E!E!EE!E!E^T^E!E!ET`d <;;;;;;;;;;;;;;;;;;;;;;;;;;;",
";;;;;;;;;;;;;;;;;;;;;,oA_T!E!E!E!E!EE!E!/E!EE!E!!E!E!T[d <;;;;;;;;;;;;;;;;;;;;;;;;;;;",
";;;;;;;;;;;;;;;;;;;;;,oA)TT^EEE!E!EE!E!EEEE!!E!UE!E!ET_s <;;;;;;;;;;;;;;;;;;;;;;;;;;;",
";;;;;;;;;;;;;;;;;;;;;;;7888888888888K^EEE'c<988888888885=;;;;;;;;;;;;;;;;;;;;;;;-;;;;",
";;;;;;;;;;;;;;;;;;;;;;;$@@###@#@@#@%K/E!U'k -@$@$@@@@#@=;;;;;;;;;;;;;;;;;;;;;;;;;;;;;",
";;;;;;;;;;;;;;;;;;;;;;;;:::::,::,,;,K!EEE`x 2,;,,;;,;,,;;;;;;;;;;;;;;;;;;;;;;;;;;;;;;",
";;;;;;;;;;;;;;;;;;;;;;;;;;;;;;;;;;-,K/E~E`l 1;;;;;;;;;;;;;;;;;;;;;;;;;;;;;;;;;;;;;;;;",
";;;;;;;;;;;;;;;;;;;;;;;;;;;;;;;;;;-,K!EEE`z 1;;;;;;;;;;;;;;;;;;;;;;;;;;;;;;;;;;;;;;;;",
";;;;;;;;;;;;;;;;;;;;;;;;;;;:;;;;;;->K/!!E`l 1;;;;;;;;;;;;;;;;;;;;;;;;;;;;;;;;;;;;;;;;",
";;;;;;;;;;;;;;;;;;;;;;;;;;;-;;-;;;-;L^!EE`l <;;;;;;;;;;;;;;;;;;;;;;;;;;;;;;;;;;;;;;;;",
";;;;;;;;;;;;;;;;;;;;;;;;;;;;;;:;;;-,K^EEU[l 2;;;;;;;;;;;;;;;;;;;;;;;;;;;;;;;;;;;;;;;;",
";;;;;;;;;;;;;;;;;;;;;;;;;;;;;;;;;;;,K^E!U'x 1;;;;;;;;;;;;;;;;;;;;;;;;;;;;;;;;;;;;;;;;",
";;;;;;;;;;;;;;;;;;;;;;;;;;;;;;;;;;-,K^EEE'l 1;;;;;;;;;;;;;;;;;;;;;;;;;;;;;;;;;;;;;;;;",
";;;;;;;;;;;;;;;;;;;;;;:;;;;;;;;;;;-,K/EEU[z 3;;;;;;,;;;;;;;;;;;;;;;;;;;;;;;;;;;-;;;;;",
";;;;;;;;;;;;;;;;;;;;;;-;;;;;;;;;;:-:K~!!U`z ;&&&&&&&&&&-;;;;;;;;;;;;;;;;;;;;;;;;;;;;;",
";;;;;;;;;;;;;;;;:;;;;;;;;;;;;;;;;;-,K~!ET_x+76555566666<;;;;;;;;;;;;;;;;;;;;;;;;;;;;;",
";;;;;;;;;;;;;;;;-;;;;;;;;;;;;;;;;;;>K/EE^TYUTTUTTUUTTP^s <;;;;;;;;;;;;;;;;;;;;;;;;;;;",
";;;;;;;;;;;;;;;;;;;;;;;;;;;;;;-:;;-,K/E!T^E^!E^!E^^^!T]d <;;;;;;;;;;;;;;;;;;;;;;;;;;;",
";;;;;;;;;;;;;;;;;;;;;;;;;;;;;;;;;;-,K^EE^TT!^TT^ETE!ET]d <;;;;;;;;;;;;;;;;;;;;;;;;;;;",
";;;;;;;;;;;;;;;;;;;;-:;;;:;;;;;;;;-,K^ET^E^TT^^T!E!E!T_d <;;;;;;;;;;;;;;;;;;;;;;;;;;;",
";;;;;;;;;;;;;;;;;;;;;;;;;-;;;;;;;;-:K^!^T^TTTTTUTTTTTT_d <;;;;;;;;;;;;;;;;;;;;;;;;;;;",
";;;;;;;;;;;;;;;;;;;;;;;;;;;;;;;;;;->K/EEEE_``[_[)[``__}f 2;;;;;;;;;;;;;;;;;;;;;;;;;;;",
";;;;;;;;;;;;;;;;;;;;;;;;-;;;;;;;;;-,JEEET_Mgjjjjjjjjjjkw+,;;;;;;;;;;;;;;;;;;;;;;;;;;;",
";;;;;;;;;;;;;;;;;;;;-;;;:;;;;;;;;;;,K/E/T_j            @;;;;;;;;;;;;;;;;;;;;;;;;;;;;;",
";;;;;;;;;;;;;;;;;;;;:;;;;;;;;;;;;;-,K/EET]x 5<2<222<22<,;;;;;;;;;;;;;;;;;;;;;;;;;;;;;",
";;;;;;;;;;;;;;;;;-:;;;;;;;;;;;;;:-->K^!ET]z 2;;;;;;;;;;;;;;;;;;;;;;;;;;;;;;;;;;;;;;;;",
";;;;;;;;;;;;;;;;;;;;;;;:;;;;;;;;-:::K^~ET_z 3,;;;;;;;;;;;;;;;;;;;;;;;;;;;;;;;;;;;;;;;",
";;;;;;;;;;;;;;;;;;;;;;;-;;;;;;;;:;-,K~EET]k *++@@;;;;;;;;;;;;;;;;;;;;;;;;;;;;;;;;;;;;",
";;;;;;;;;;;;;;;;;;;;;;;;;;;;;;;;;;-:U~E~T_v509999;;;;;;;;;;;;;;;;;;;;;;;;;;;;;;;;;;;;",
";;;;;;;;;;;;;;;;;;;;;;;;;;;;;;;;;;-,JEEE~~~~^^!)K,-;;;;;;;;;;;;;;;;;;;;;;;;;;;;;;;;;;",
";;;;;;;;;;;;;;;;;;;;;;;;;;;;;;;;;;-,K!~EEEEEE!E^K>-;;;;;;;;;;;;;;;;;;;;;;;;;;;;;;;;;;",
";;;;;;;;;;;;;;;;;;;;;;;;;;;;;;;;;;;,K^EE!E!E!EE^K>;;;;;;;;;;;;;;;;;;;;;;;;;;;;;;;;;;;",
";;;;;;;;;;;;;;;;;;;;;;;;;;;;;;;;;;-;K/E!E!E!E^E/K,-;;;;;;;;;;;;;;;;;;;;;;;;;;;;;;;;;;",
";;;;;;;;;;;;;;;;;;;;;-;;;;;;;;;;;;;,K^EE!EEETTTEH>;;;;;;;;;;;;;;;;;;;;;;;;;;;;;;;;;;;",
";;;;;;;;;;;;;;;;;;;;;;;;;;;;;;;;;;-,K^!!!E/[````T,-;;;;;;;;;;;;;;;;;;;;;;;;;;;;;;;;;;",
";;;;;;;;;;;;;;;;;;;;;;;;;;;;;;;;;;;>K/!EE`missasp:;;;;;;;;;;;;;;;;;;;;;;;;;;;;;;;;;;;",
";;;;;;;;;;;;;;;;;;;;;;;;;;;;;;;;;;-,K!EEE`k X    ;;;;;;;;;;;;;;;;;;;;;;;;;;;;;;;;;;;;",
";;;;;;;;;;;;;;;;;;;;;;;;;;;;;;;;;;;,L^E^E`z 3<<<<;;;;;;;;;;;;;;;;;;;;;;;;;;;;;;;;;;;;",
";;;;;;;;;;;;;;;;;;;;;;;;;;;;;;;;;;-;L^E^E`l <;;;;;;;;;;;;;;;;;;;;;;;;;;;;;;;;;;;;;;;;",
";;;;;;;;;;;;;;;;;;;;;;;;;;;;;;;;;;;,KEETT`l 3,<,,,,,,,,,;;;;;;;;;;;;;;;;;;;;;;;;;;;;;",
";;;;;;;;;;;;;;;;;;;;;;;;;;;;;;;;;;-,L__^/[z @XoooXooXoX$;;;;;;;;;;;;;;;;;;;;;;;;;;;;;",
";;;;;;;;;;;;;;;;;;;;;;;;;;;;;;;;;;;;BACAVFlqrrrrrrrrrrr7&>;;;;;;;;;;;;;;;;;;;;;;;;;;;",
";;;;;;;;;;;;;;;;;;;;;;;;;;;;;;;;;;;;oXXX@ l[^)``______[g <;;;;;;;;;;;;;;;;;;;;;;;;;;;",
";;;;;;;;;;;;;;;;;;;;;;;;;;;;;;;;;;;;,,,,3 l_TTEETEETTT`d <;;;;;;;;;;;;;;;;;;;;;;;;;;;",
";;;;;;;;;;;;;;;;;;;;;;;;;;;;;;;;;;;;;;;;2 z`TE!!EE/EET[d <;;;;;;;;;;;;;;;;;;;;;;;;;;;",
";;;;;;;;;;;;;;;;;;;;;;;;;;;;;;;;;;;;;;;;2 l`TE!EE^EETY[f <;;;;;;;;;;;;;;;;;;;;;;;;;;;",
";;;;;;;;;;;;;;;;;;;;;;;;;;;;;;;;;;;;;;;;1 l`TETETEETTU)d <;;;;;;;;;;;;;;;;;;;;;;;;;;;",
";;;;;;;;;;;;;;;;;;;;;;;;;;;;;;;;;;;;;;;;1 c[^___``___^[g <;;;;;;;;;;;;;;;;;;;;;;;;;;;",
";;;;;;;;;;;;;;;;;;;;;;;;;-;;;;;;;;;;;;;;,$9ituutuittiii8$>;;;;;;;;;;;;;;;;;;;;;;;;;;;",
";;;;;;;;;;;;;;;;;;;;;;;;;;;;;;;;;;;;;;;;;:@ .  ..   .. #>;;;;;;;;;;;;;;;;;;;;;;;;;;;;",
";;;;;;;;;;;;;;;;;;;;;;;;;;;;;;;;;;;;;;;;;;,,<,<,<;<<,,<;;;;;;;;;;;;;;;;;;;;;;;;;;;;;;",
";;;;;;;;;;;;;;;;;;;;;;;;;;;;;;;;;;;;;;;;;;;;;;;;;;;;;;;;;;;;;;;;;;;;;;;;;;;;;;;;;;;;;",
";;;;;;;;;;;;;;;;;;;;;;;;;;;;;;;;;;;;;;;;;;;;;;;;;;;;;;;;;;;;;;;;;;;;;;;;;;;;;;;;;;;;;",
";;;;;;;;;;;;;;;;;;;;;;;;;;;;;;;;;;;;;;;;;;;;;;;;;;;;;;;;;;;-;;;;;;;;;;;;;;;;;;;;;;;;;",
";;;;;;;;;;;;;;;;;;;;;;;;;;;;;;;;;;;;;;;;;;;;;;;;;;;;;;;;;;;;;;;;;;;;;;;;;;;;;;;;;;;;;",
";;;;;;;;;;;;;;;;;;;;;;;;;;;;;;;;;;;;;;;;;;;;;;;;;;;;;;;;;;;;;;;;;;;;;;;;;;;;;;;;;;;;;"
};
