/* XPM */
static char *_ce6437203694816a65641e3f841bf5bGkkxw3bzmTqj0MOQ[] = {
/* columns rows colors chars-per-pixel */
"85 91 103 2 ",
"   c #000000",
".  c #0D0000",
"X  c #140000",
"o  c #1A0000",
"O  c #240002",
"+  c #270008",
"@  c #28000B",
"#  c #2D0015",
"$  c #2F0019",
"%  c #32001D",
"&  c #350720",
"*  c #360C21",
"=  c #371123",
"-  c #381625",
";  c #3A1927",
":  c #3C1E29",
">  c #3E232C",
",  c #40272E",
"<  c #41282F",
"1  c #432D32",
"2  c #463235",
"3  c #483537",
"4  c #483638",
"5  c #4C3B3C",
"6  c #4F403F",
"7  c #524442",
"8  c #564A47",
"9  c #594E4A",
"0  c #5E544E",
"q  c #625952",
"w  c #6B655C",
"e  c #6E695F",
"r  c #726D62",
"t  c #767166",
"y  c #797669",
"u  c #7E7B6D",
"i  c #807D6F",
"p  c #817F71",
"a  c #838173",
"s  c #888777",
"d  c #898778",
"f  c #8D8D7C",
"g  c #908F7F",
"h  c #90907F",
"j  c #949483",
"k  c #979886",
"l  c #989987",
"z  c #9A9B89",
"x  c #9FA18D",
"c  c #A0A28E",
"v  c #A3A591",
"b  c #A6A894",
"n  c #AAAD97",
"m  c #AAAD98",
"M  c #AEB19B",
"N  c #B1B49E",
"B  c #B3B7A0",
"V  c #B6BAA3",
"C  c #BABEA6",
"Z  c #BEC3AA",
"A  c #C2C7AE",
"S  c #C3C8AF",
"D  c #C6CBB1",
"F  c #C9CFB5",
"G  c #CBD1B6",
"H  c #CED5B9",
"J  c #D0D7BB",
"K  c #D3DABE",
"L  c #D5DCC0",
"P  c #D5DDC0",
"I  c #D7DEC1",
"U  c #D8DFC2",
"Y  c #DAE1C4",
"T  c #DBE3C5",
"R  c #DEE5C8",
"E  c #DEE6C8",
"W  c #DFE7C9",
"Q  c #E2EACC",
"!  c #E3EBCD",
"~  c #E4EDCE",
"^  c #E6EECF",
"/  c #E6EFD0",
"(  c #E7F0D1",
")  c #EAF3D3",
"_  c #EAF3D4",
"`  c #EBF3D4",
"'  c #EBF4D5",
"]  c #ECF4D5",
"[  c #ECF5D5",
"{  c #ECF5D6",
"}  c #EDF5D6",
"|  c #EEF7D7",
" . c #EFF8D7",
".. c #EFF8D8",
"X. c #EFF9D8",
"o. c #F1FADA",
"O. c #F1FBDA",
"+. c #F3FCDB",
"@. c #F3FCDC",
"#. c #F7FFDF",
"$. c #F7FFE0",
"%. c #F8FFE0",
"&. c #FCFFE4",
/* pixels */
"> > > > > > > > > > > > > > > > > = X X o X o X o X o X o X o X o X o X X o X o X * > > > > > > > > > > > > > > > > > > > > > > > > > > > > > > > > > > > > > > > > > > > ",
"> > > > > > > > > > > > > > > > * 8 a u u u u u u u u u u u u u p u u u i u u u p 9 * > > > > > > > > > > > > > > > > > > > > > > > > > > > > > > > > > > > > > > > > > > ",
"> > > > > > > > > > > > > > > 2   j %.o.o.O.O.#.O.O.#.o.#.o.O.o.o.@.O.@.O.O.O.O.%.k   2 > > > > > > > > > > > > > > > > > > > > > > > > > > > > > > > > > > > > > > > > > ",
"> > > > > > > > > > > > > > > 2   g o.) [ [ [ [ [ ' '  .[ [ [ ' ' ' [ [ [ [ [ ' o.j   2 > > > > > > > > > > > > > > > > > > > > > > > > > > > > > > > > > > > > > > > > > ",
"> > > > > > > > > > > > > > > 2   h O.[ [ [ [ o.[  .'  .'  .'  .'  .[ [  .[ [ [ @.j   2 > > > > > > > > > > > > > > > > > > > > > > > > > > > > > > > > > > > > > > > > > ",
"> > > > > > > > > > > > 1 1 1 4 X h #.) o.[ [ [ [ [  .'  .'  .'  .'  .X.[  .[ ' #.j . 5 1 1 2 > > > > > > > > > > > > > > > > > > > > > > > > > > > > > > > > > > > > > > ",
"> > > > > > > > > > > - X X X +   s #.[ [ [ [ [  . .'  .'  .'  .'  .[ [  .[  .' #.f   + X X . = < > > > > > > > > > > > > > > > > > > > > > > > > > > > > > > > > > > > > ",
"> > > > > > > > > > - 7 a u a a t n o.[ o.[ o.[ [ [  .'  .'  .'  .'  .[ [ [ [ [ O.M t a p p a 7 - > > > > > > > > > > > > > > > > > > > > > > > > > > > > > > > > > > > > ",
"> > > > > > > > > 1 X u $.o.o.@.O.o.[ [ [ [ [ [  .'  .'  .'  .' '  .'  .[ [ X. .' o.@.o.O.O.#.s . 1 > > > > > > > > > > > > > > > > > > > > > > > > > > > > > > > > > > > ",
"> > > > > > > > > 1 o u X.' [ [ [ [ o.[ o.[ [ [ '  .'  .'  .'  . .'  .'  .[ [ [  .' [ ' [ ' o.p X 1 > > > > > > > > > > > > > > > > > > > > > > > > > > > > > > > > > > > ",
"> > > > > > > > > 1 o u o.[ [ [ X.[ [ [ [ [ [ o. .'  .'  .'  .'  .' '  . .[ X.[ [ [ [  . .' o.a X 2 > > > > > > > > > > > > > > > > > > > > > > > > > > > > > > > > > > > ",
"> > > > > > > > > 1 o u o.[ X.[ [ [ [ [ [ [ [ [ '  .'  .'  .'  .'  .[ ' [ ' ' ' [ X.[ [ ' ' o.a X 1 > > > > > > > > > > > > > > > > > > > > > > > > > > > > > > > > > > > ",
"> > > > > > > > > 1 o y O.[ [ [ '  .O.#.O.o.o.o.'  .[ [  .'  .'  .' [ o.o.@.O.O.#. .' [ [ [ O.a X 1 > > > > > > > > > > > > > > > > > > > > > > > > > > > > > > > > > > > ",
"> > > > > > > > > 1 o u O.[ [ X. .^ K K I Y J W X.[ [  .'  .'  .'  .X.W J I K I H ^  .' X.[ O.a X 1 > > > > > > > > > > > > > > > > > > > > > > > > > > > > > > > > > > > ",
"> > > > > > > > > 1 o u o.[ [ [ #.H   O   O   z #.' [  . .'  .'  .[ #.x   O . O   G #.' [ [ @.a X 1 > > > > > > > > > > > > > > > > > > > > > > > > > > > > > > > > > > > ",
"> > > > > > > > > 1 o u o.'  .[ O.J   5 1 5   c #.' [ [ '  .'  .' [ #.b   5 1 5   H o.' [ [ @.a X 2 > > > > > > > > > > > > > > > > > > > > > > > > > > > > > > > > > > > ",
"> > > > > > > > > 1 o u o.[ [ [ #.H   2 > 2   c @.'  .'  .'  .' [ ) #.b   3 > 2   G o.' [ [ o.a X 1 > > > > > > > > > > > > > > > > > > > > > > > > > > > > > > > > > > > ",
"> > > > > > > > > 1 o u o.[ [ [ @.H   5 1 5   v #.' '  .'  .'  . .) #.b   5 1 5   G @.'  .' O.a X 1 > > > > > > > > > > > > > > > > > > > > > > > > > > > > > > > > > > > ",
"> > > > > > > > > 1 o y o.[ [ [ @.H   O . O   z #.' '  . .'  .' ' ) #.c   + . +   G #.' [ [ O.a X 1 > > > > > > > > > > > > > > > > > > > > > > > > > > > > > > > > > > > ",
"> > > > > > > > > 1 o u o.[ [ [ o.I y d s d y V @.'  .' '  .'  . .[ O.C y s a d y K @.[ [ [ O.a . 2 > > > > > > > > > > > > > > > > > > > > > > > > > > > > > > > > > > > ",
"> > > > > > > > > 1 o u o.[  .[ [ o.O.#.O.O.%.o.'  .'  .'  .'  .[ [ ' o.@.@.O.@.O.X.[ [  .' O.a X 1 > > > > > > > > > > > > > > > > > > > > > > > > > > > > > > > > > > > ",
"> > > > > > > > > 1 o u O.[ [ [ [ [ [ [ [ [ [ '  .'  .'  .'  .' [  .[ [ [ ' [ [ [  .X.[ [ [ O.a X 1 > > > > > > > > > > > > > > > > > > > > > > > > > > > > > > > > > > > ",
"> > > > > > > > > 1 o u O.[ [ [ [ [  .' [  .[ [ '  .'  .'  .'  . .[  .[ '  .'  .'  .[ [ [ [ o.a X 1 > > > > > > > > > > > > > > > > > > > > > > > > > > > > > > > > > > > ",
"> > > > > > > > > 1 o u o.[ [ ' [ [ '  .[ [ [ [  .'  .'  .'  .' [ [  .[  .'  .'  .[ [ [ ' ' X.a X 2 > > > > > > > > > > > > > > > > > > > > > > > > > > > > > > > > > > > ",
"> > > > > > > > > 1 X p #.o.o.#.%.o.[ [ '  .'  .'  .'  .'  .'  .[ X. .'  .'  .' [ O.O.#.o.o.#.a . 1 > > > > > > > > > > > > > > > > > > > > > > > > > > > > > > > > > > > ",
"> > > > > > > > > 1 + r I J K K J Y o.[  .'  .'  .'  .'  .'  .' [ [ '  .'  .'  .o.Y K J J J Y t O 1 > > > > > > > > > > > > > > > > > > > > > > > > > > > > > > > > > > > ",
"> > > > > > > > > > > =       X   a #.` '  .'  .'  .'  .'  .'  . .'  .' X.[  .' @.f   o       * > > > > > > > > > > > > > > > > > > > > > > > > > > > > > > > > > > > > > ",
"> > > > > > > > > > > > 2 1 2 5 o h #.`  .'  .'  .'  .'  .'  .' '  .'  .[ [ ' ' @.k X 5 2 2 2 > > > > > > > > > > > > > > > > > > > > > > > > > > > > > > > > > > > > > > ",
"> > > > > > > > > > > > > > > 2   h o.' [  .'  .'  .'  .'  .'  . .'  .' [  .' [ @.j   2 > > > > > > > > > > > > > > > > > > > > > > > > > > > > > > > > > > > > > > > > > ",
"> > > > > > > > > > > > > > > 1   f #.' [ [  .[  .'  .'  .'  .' '  .'  . .' [ ' @.j   2 > > > 1 2 1 1 2 2 > > > > > > > > > > > > > > > > > > > > > > > > > > > > > > > > ",
"> > > > > > > > > > > > > > > 2   h @.'  . .[ [ '  .'  .'  .'  . .'  .' [ X.[ [ #.j   2 > > , o           ; > > > > > > > > > > > > > > > > > > > > > > > > > > > > > > > ",
"> > > > > > > > > > > > > > > 2   h @.' [ [ [ X. .'  .'  .'  .' '  .'  .[ [ [ [ @.j   2 > > * p f d f d f 6 ; > > > > > > > > > > > > > > > > > > > > > > > > > > > > > > ",
"> > > > > > > > > > > > > > > 2   h $.' [ [ [ [ | [ | [ | [ X.[  .' X.[ | [ | [ @.j   2 > 2   W #.o.#.o.#.r O 1 > > > > > > > > > > > > > > > > > > > > > > > > > > > > > ",
"> > > > > > > > > > > > > > > 1   f o.` X.[  .X.[ | [ | [ | [ [ '  .[ [ [ | [ ` @.j   2 > 1 X K o.` ' ' ' e + < > > > > > > > > > > > > > > > > > > > > > > > > > > > > > ",
"> > > > > > > > > > > > > > > 2   h $.` [ | [ [ | [ | [ | [ [ [  .[  .[ [ [ [ [ #.j   2 > 2 . I o.[ ' [ X.e + 1 > > > > > > > > > > > > > > > > > > > > > > > > > > > > > ",
"> > > > > > > > > > > > > > > 1   f o.[ [ [ [ [ [ [ [ [ [ [ [ [ ' [ ' [ [ [ ' ` o.j   2 > 1 . K o.[ [ [ ' r % 4 2 1 2 > > > > > > > > > > > > > > > > > > > > > > > > > > ",
"> > > > > > > > > > > > > > > 2   j %.o.$.@.@.o.@.@.@.@.#.@.@.@.@.@.@.@.$.@.@.o.&.k   2 , 1   Y %.o.#.o.#.q   X       : > > > > > > > > > > > > > > > > > > > > > > > > > ",
"> > > > > > > > > > > > > > > 1 o i I H H H H H J J J H H H H H H J H H H J J H K a o 1 > 1 O Z K H H J J k d f f f f 2 : > > > > > > > > > > > > > > > > > > > > > > > > ",
"> > > > > > > > > > > > > > > > 1 %                                               % , > > > > .           Q #.@.@.#.X.0 % > > > > > > > > > > > > > > > > > > > > > > > > ",
"> > > > > > > > > > > > > > > > > > 2 2 2 2 2 2 2 2 2 2 2 2 2 2 2 2 2 2 2 2 2 2 2 , > > > > > 1 3 2 2 2 > W  .` ) ' ( 0 % > > > > > > > > > > > > > > > > > > > > > > > > ",
"> > > > > > > > > > > > > > > > > > > > > > > > > > > > > > > > > > > > > > > > > > > > > > > > > > > > % W o.[  . .) 9 % > > > > > > > > > > > > > > > > > > > > > > > > ",
"> > > > > > > > > > > > > > > > > > 2 2 2 1 2 1 > > > > > > > > > > > > > > > > > 1 2 1 1 2 2 2 2 2 2 2 : W X.' [ [ ) 0 : 2 1 3 1 2 2 2 1 2 2 > > > > > > > > > > > > > > ",
"> > > > > > > > > > > > > > > > > %           O < > > > > > > > > > > > > > > : 1 o                       W o.'  .[ ` 1                     X > > > > > > > > > > > > > > ",
"> > > > > > > > > > > > > > > , % q j f j f j y # < > > > > > > > > > > > > > 1 % u j f h h h h h h f j f ! o.[ [ X.' k f j f j h h h h h j a - > > > > > > > > > > > > > ",
"> > > > > > > > > > > > > > > 2   j #.o.o.o.%.F   5 > > > > > > > > > > > > > 3   J &.o.#.@.#.@.@.#.@.@.$.[ [ [ [  .' #.@.O.%.@.#.#.@.@.#.#.Q O 1 > > > > > > > > > > > > ",
"> > > > > > > > > > > > > > > 1   f #.' ' ' o.A   2 > > > > > > > > > > > > > 2   G o.) ' ' [ [ ' ' ' ' [ X.X.[ [ [ [ [ ' ' ' ' [ [ ` ' )  .Y + 1 > > > > > > > > > > > > ",
"> > > > > > > > > > > > > > > 2   f o.'  .` %.A   2 > > > > > > > > > > > > > 2   G @.[ [ [ [ [  .[  .' [ [  .[  .[  .[ [  . .' [ [ [ [ [ o.Y @ < > > > > > > > > > > > > ",
"> > > > > > > > > > > > > > > 2   h #.' [ [ o.A   4 > > > > > > > > > 1 2 1 2 5   G o.) [ ' [ [ ' [ [ ' [ [ [ [  .[ [ ' ' ' ' ' [ [ [ [ )  .Y % 4 2 2 1 1 > > > > > > > > ",
"> > > > > > > > > > > > > > > 2   f #.' [ [ #.S   2 > > > > > > > > < O       o   G &.O.@.@.@.o.@.@.@.@.o.[ [ [ [ X.[ $.O.@.@.@.o.#.o.@.O.%.W           X , > > > > > > > ",
"> > > > > > > > > > > > > > > 1   h o.' [ ' O.S   2 > > > > > > > < # y j h j j f Z K H H G H H H G H H G ) o.[ [ [ [ H G H G H H H G H H H D j j j j j a % , > > > > > > ",
"> > > > > > > > > > > > > > > 2   h o.'  .' #.S   4 > > > > > > > 2   D &.@.#.o.&.g                       W o.[  .[ ` :                     w %.o.#.O.%.U   2 > > > > > > ",
"> > > > > > > > > > > > > > > 1   f #.' [ ' o.S   2 > > > > > > > 2   Z o.` ) ) o.j o 5 2 2 2 2 2 2 2 2 > W o.[ [ o.` 0 > 4 2 2 2 2 2 1 5 $ y [ ) [ ] o.J   1 > > > > > > ",
"> > > > > > > > > > > > > > > 2   h O.'  .' O.S   2 > > > > > > > 2   Z O.[  .' #.j   2 > > > > > > > > & W X.[ [ [ ) 0 % > > > , , > , 1 o t o.[ [ [ o.J   2 > > > > > > ",
"> > > > > > > > > > > > > > > 2   h #.' ' ) #.S   4 > > > > > > > 4   S #.' [ ' o.k X 5 2 2 2 2 2 2 2 2 : W o.[ [ [ ) 0 > 2 2 2 2 2 1 2 5 # y X.[ [ ) o.J o 5 2 2 2 < > > ",
"> > > > > > > > > > > > > > > 1   h o.'  .) @.S   2 > > > > > > > 2   Z o.[  .' #.d   X                   Q o.[  .X.) >                     w #.o.#.o.%.U   X       o < > ",
"> > > > > > > > > > > > > > > 2   h @.'  .) o.A   2 > > > > > > > 4   Z #.' [ ' o.V f k j j j j j j j k j Q [ ' [ [ ' z j k j j j j j j j j x H G G F H Z j j j j l i $ < ",
"> > > > > > > > > > > > > > > 2   h o.' [ ) #.S   2 > > > > > > > 4   Z #.' [ [ ' @.#.@.@.#.@.#.$.@.@.$.#.o.| [ [ [ [ $.#.@.@.#.#.#.o.#.o.%.Q           a #.o.#.O.&.G   2 ",
"> > > > > > > > > > > > > > > 1   h #.'  .' o.S   2 > > > > > > > 2   Z #.' [ [ X.[ ) ' ' ) ' ) ) ' ' [ ) | [ X.[ X.[ [ ) ' ' ) [ [ ` ' ` X.Y % 5 3 5 O f o.' ' ' O.D   2 ",
"> > > > > > > > > > > > > > > 2   f o.' [ ) #.S   2 > > > > > > > 4   Z #.'  .[ [ [  .[  .'  .' [  .[ [ [ [ [ [ | [ | |  .' [  .[ [ [ [ ' o.Y + < > 1   s #.[ [ [ o.D   3 ",
"> > > > > > > > > > > > > > > 2   h #.' [ ' @.S   2 > > > 1 2 2 2 5   Z o.) ' ' ' ' ' [ ' ' ' ' ' ' ' [ [ [ [ [ [ | [ [ ) ' ' ' [ [ [ [ ' o.Y + < > 2   s o.[ [ [ #.D   2 ",
"> > > > > > > > > > > > > > > 1   h o.' ' ' @.Z   3 > > 1 +       o   A &.o.#.o.@.@.#.o.#.o.#.@.o.O.@.#.#.[ [ X. .[ [ #.@.o.@.#.#.+.#.o.O.#.Q O < > 2   f o.'  .' @.D   3 ",
"> > > > > > > > > > > > > > > 2   f #.'  .' #.S   2 > 1 # t z k k j j V G F G G F G D G F F F G G G G D D ) [ [ [ [ ' G F G F F F F F F F G C $ < > 1   d #.[ [ ' #.D   2 ",
"> > > > > > > > > > > > > > > 1   h o.' ' ' #.S   3 > 2   V &.o.#.@.&.b                                   W o.[ [ X.) ;                       , > > 2   s O.' ' ' #.D   3 ",
"> > > > > > > > > > > > > > > 2   h #.'  .) @.S   2 > 2   M @.` ' ( @.b . 5 2 2 3 2 3 2 2 2 2 3 2 2 2 3 > W o.[ [ X.) 0 > 5 2 2 2 3 2 2 4 2 2 > > , 2   f o.'  .' @.D   2 ",
"> > > > > > > > > > > > > > > 2   f o.[ [ [ #.S   2 > 3   N #.' ' ' #.b   2 > > > > > > > > > > > > > > % W o.[ [ X.` 9 % > > > > > > > > > > > > > 1   f O.[ [ [ O.D   2 ",
"> > > > > > > > > > > > 2 2 2 5 o j #.' [ ' @.S   6 2 5   N o.) ` ) @.v   2 > > > 2 2 2 2 2 2 2 2 2 2 2 > W O.[ [ X.) 0 > 5 2 2 2 2 2 2 2 2 1 > > > 1   f #.[ [ ] #.D   3 ",
"> > > > > > > > > > < *       .   s @.) [ [ $.A   X   X   N &.o.#.o.&.n   2 > > 1 X                       W o.' [ X.) >                       , > > 1   s O.[ [ ) #.D   2 ",
"> > > > > > > > > , * 9 z z z z j V o.[ [ [ o.J h z z z j N G G D D H f X 2 > > # s z k z k z k z k z z k ^ X.[ [ [ ' c j z z z z z z z k z g = , > 2 . f o.[ [ ` #.D   3 ",
"> > > > , > > > > 1 X u #.O.o.#.@.o.[ [  .[ [ o.#.#.#.o.&.V           @ 1 > > 2   J $.#.#.O.#.#.o.#.#.#.#.[  .[  .'  .#.$.$.@.$.o.#.O.#.#.%.Q O < , 1   d @.[ X.) #.D   2 ",
"> > > > > > > > > 1 o u o.' ' ' ' [ X.[ [ [ [ [ ) ' ) ' #.B   5 2 2 4 1 : > > 2   F o.) ' ' [ [ ' ' ) [ ) '  .[ '  .' [ ) ` ` ` ' [ ' ' )  .Y + < > 1   d @.[ [ ) @.D   2 ",
"> > > > > > > > > 1 o u o.[  .[ [ [ [ [ X.[ | | ' [ [ [ #.V   4 > > > > > > > 2   G #.` [ [ [ [ [  . .'  .[ [ [ [ [ [ X.' ' [ |  . . .[ [ o.Y + < , 2   d #.[ [ ' #.D   3 ",
"> > > > > > > > > 1 o u o.' ) ' [ [ [  .[ | [ [ ' ' ' ' o.B   3 > > > > > > > 2   G o.) [ ' [ [ [ [ '  .' [ ' [ ' ' [ [ [ ' | [ [ ) ' ) ) X.Y + , , 2   d o.) ' ) o.S   2 ",
"> > > > > > > > > 1 X i %.@.#.@.#.O.[  .[  .[  .#.O.#.o.&.C   3 > > > > > > > 2   J &.o.@.@.$.[  .[ [  .[ #.#.@.#.@.@. .| [ | |  .+.#.+.@.$.Q O 1 > 2   h %.@.@.o.&.H   4 ",
"> > > > > > > > > 1 # w G D D D S J  .[ [ [  .W S D D D H k . 1 > > > > > > > 1 X m G D D D A ^ X.[ [ [ ' H A D D D D ) | | [ | ) D D D D G V % > > 1 O t H D D D G b X 2 ",
"> > > > > > > > > > > %           a o.'  .' %.Z           o 1 > > > > > > > > > 1 .           I @.[ X.[ X.9         o / | | | X.!             > > > > > %           X > > ",
"> > > > > > > > > > > < 2 2 2 5 o j #.' ' ' O.S   6 2 2 3 < > > > > > > > > > > > 1 4 2 4 5 + I @.'  .[  .r * 5 2 1 7 ( | | ` X.! 5 2 2 2 4 2 > > > > > > 4 2 2 2 2 1 > > ",
"> > > > > > > > > > > > > > > 2   h #.) [ ' #.A   2 > > , > > > > > > > > > > > > > > > > 2 . I o.[ [ [ o.e + 1 > ; 5 /  .[ [ X.^ 1 : > > > > > > > > > > > > > > > > > > ",
"> > > > > > > > > > > > > > > 2   f o.) ' ' o.A   2 > > > > > > > > > > > > > > > > > > > 1 . I @.[ X.[ X.e @ > > ; 5 / X.[ [ X.Q 1 : > > > > > > > > > > > > > > > > > > ",
"> > > > > > > > > > > > > > > 2   j %.#.@.o.&.F   3 > > > > > > > > > > > > > > > > > > > 1 . I o.[ [ [ X.e + 1 > - 5 ( X.[ [ X.Q 1 : > > > > > > > > > > > > > > > > > > ",
"> > > > > > > > > > > > > > > 1 O y F A D A G v X 1 > > > > > > > > > > > > > > > > > > > 1 . I @.' [  . .e + 1 < - 5 ( X.[ X.| ! 1 : > > > > > > > > > > > > > > > > > > ",
"> > > > > > > > > > > > > > > > < $           X 1 > > > > > > > > > > > > > > > > > > > > 2 . I #.[ [ [ X.e + , > - 5 / | [ [ X.Q 1 > > > > > > > > > > > > > > > > > > > ",
"> > > > > > > > > > > > > > > > > , 3 2 3 2 3 1 > > > > > > > > > > > > > > > > > > > > > 1 . I o.[ [ o.[ e + 1 > ; 5 / | [ [ X.^ 1 : > > > > > > > > > > > > > > > > > > ",
"> > > > > > > > > > > > > > > > > > > > > > > > > > > > > > > > > > > > > > > > > > > > > 1 . I @.[ [ [ o.e + 1 , ; 5 / ..| [ o.Q 1 : > > > > > > > > > > > > > > > > > > ",
"> > > > > > > > > > > > > > > > > > > > > > > > > > > > > > > > > > > > > > > > > 1 2 2 2 5 + Y o.[ [ [ X.e + , > - 5 / | | ] o.Q 4 2 2 2 2 2 > > > > > > > > > > > > > > ",
"> > > > > > > > > > > > > > > > > > > > > > > > > > > > > > > > > > > > > > > > < X           K @.[ [ [ o.e + 1 > - 5 / o.] [ | Q             > > > > > > > > > > > > > > ",
"> > > > > > > > > > > > > > > > > > > > > > > > > > > > > > > > > > > > > > > 1 # d v x x v z W o.' [ [ [ e + 1 , ; 5 / | | | | ) x c c c v j = > > > > > > > > > > > > > ",
"> > > > > > > > > > > > > > > > > > > > > > > > > > > > > > > > > > > > > > > 2   J &.#.#.#.#. .| [ [ [ X.e @ 1 > - 5 / X.] | [  .#.$.@.O.%.Q O 1 > > > > > > > > > > > > ",
"> > > > > > > > > > > > > > > > > > > > > > > > > > > > > > > > > > > > > > > 2   G o.' ' ) ) ' [ | [ X.X.e + 1 > - 5 / X.| [ | ' ) ' ' '  .Y + < > > > > > > > > > > > > ",
"> > > > > > > > > > > > > > > > > > > > > > > > > > > > > > > > > > > > > > > 2   G @.' [  . .[ | [ | [ o.e @ 1 > - 5 ( X.' | [  .'  .' ' o.T + 1 > > > > > > > > > > > > ",
"> > > > > > > > > > > > > > > > > > > > > > > > > > > > > > > > > > > > > > > 2   G @.' [ [ [ [ [ | [ | o.e + < > - 5 ( X.[ [ X.'  .'  .[ o.T + 1 > > > > > > > > > > > > ",
"> > > > > > > > > > > > > > > > > > > > > > > > > > > > > > > > > > > > > > > 2   G #.'  .[ [ [ | [ | [ o.e + < > - 5 ^ X.[ [ [  .'  .' '  .T + 1 > > > > > > > > > > > > "
};
