/* XPM */
static char *_943450bc9274726aca16a6859778a7dmpuLnpeXzB9CvmY5[] = {
/* columns rows colors chars-per-pixel */
"85 91 106 2 ",
"   c #000000",
".  c #0A0000",
"X  c #140000",
"o  c #1C0000",
"O  c #240002",
"+  c #270009",
"@  c #28000C",
"#  c #2C0013",
"$  c #2F0019",
"%  c #32011D",
"&  c #350720",
"*  c #360D22",
"=  c #371123",
"-  c #381425",
";  c #3A1927",
":  c #3B1C28",
">  c #3E232C",
",  c #40272E",
"<  c #41282F",
"1  c #432D32",
"2  c #463235",
"3  c #483537",
"4  c #493638",
"5  c #4D3D3D",
"6  c #4F403F",
"7  c #524442",
"8  c #574A47",
"9  c #594E49",
"0  c #5D524D",
"q  c #605650",
"w  c #635B53",
"e  c #6B645B",
"r  c #6E685E",
"t  c #716C61",
"y  c #767166",
"u  c #797569",
"i  c #7D7A6C",
"p  c #858374",
"a  c #888777",
"s  c #888778",
"d  c #8C8B7B",
"f  c #939382",
"g  c #989886",
"h  c #9B9C89",
"j  c #9FA18D",
"k  c #A0A28E",
"l  c #A4A792",
"z  c #A7A994",
"x  c #A8AB96",
"c  c #AAAD98",
"v  c #AFB29C",
"b  c #B2B59E",
"n  c #B3B7A0",
"m  c #B9BEA6",
"M  c #BBC0A7",
"N  c #BEC3AA",
"B  c #C1C6AD",
"V  c #C3C8AF",
"C  c #C5CBB1",
"Z  c #C8CEB4",
"A  c #CBD1B6",
"S  c #CED4B9",
"D  c #D1D7BC",
"F  c #D3DABE",
"G  c #D7DEC1",
"H  c #D8DFC2",
"J  c #D9E1C4",
"K  c #DAE2C5",
"L  c #DBE2C5",
"P  c #DCE3C6",
"I  c #DDE4C7",
"U  c #DEE6C8",
"Y  c #DFE7C9",
"T  c #E0E7C9",
"R  c #E2EACB",
"E  c #E2EACC",
"W  c #E3EBCD",
"Q  c #E3ECCD",
"!  c #E4ECCD",
"~  c #E5EECF",
"^  c #E7EFD0",
"/  c #E7F0D0",
"(  c #E9F2D2",
")  c #EAF3D3",
"_  c #EBF3D4",
"`  c #EBF4D4",
"'  c #ECF4D4",
"]  c #ECF4D5",
"[  c #EDF6D5",
"{  c #EDF6D6",
"}  c #EEF7D7",
"|  c #EFF8D7",
" . c #EFF8D8",
".. c #EFF9D8",
"X. c #F0F9D8",
"o. c #F2FBDA",
"O. c #F2FBDB",
"+. c #F2FCDB",
"@. c #F3FCDB",
"#. c #F3FDDC",
"$. c #F4FDDC",
"%. c #F4FEDC",
"&. c #F7FFDF",
"*. c #F8FFE0",
"=. c #FBFFE2",
"-. c #FCFFE4",
/* pixels */
"{ { { { {  .` ` ` ` ` ` ` ` ` ` ` ` ` ` ` ` _ ` ` ` ` ` ` ` ` ` ` ` _ ` ` ` ` ` ` ` ` ` ` ` _ ` ` ` ` ` ` ` ` ` ` ` _ ` ` ` ` ` ` ` ` ` ` ` ` ` ` ` ` ` ` ` ` ` { { { { { ",
"{ { { { { ` #.%.#.*.%.%.*.%.#.*.%.%.%.*.*.%.%.%.%.*.*.%.%.%.%.*.*.%.%.%.%.*.*.%.%.%.%.*.*.%.%.%.%.*.*.%.*.%.%.*.*.%.%.%.%.*.*.%.*.%.%.*.*.%.%.%.%.*.*.%.%.%.%.*. .{ { { { ",
"{ { { { { O.C k x x x x z x x x x z x x x x x x z x x x x z x x x x x x z x x x x z x x x x x x z x x x z z l x x x x x z x x x z z z z x x z x z x x x x z x l Y O.) { { ",
"{ { { { ` %.d                                                                                                                                                   D +.` { { ",
"{ { { { ` %.g o 5 3 2 2 2 2 2 3 2 2 3 2 3 2 2 2 2 2 2 2 3 2 2 3 2 3 2 2 2 2 2 3 2 2 3 2 3 2 2 2 2 2 2 2 3 2 2 3 2 3 2 3 2 2 2 3 3 2 3 2 3 2 2 2 2 2 2 2 2 3 5 O D +.{ { { ",
"{ { { { ` %.g   2 > > > > > > > > > > > > > > > > > > > > > > > > > > > > > > > > > > > > > > > > > > > > > > > > > > > > > > > > > > > > > > > > > > > > > 2 . F +.` { { ",
"{ { { { ` %.g   1 > : 1 3 3 2 3 3 3 3 3 3 3 3 3 2 3 3 3 3 3 3 3 1 > > > > > 2 3 3 3 3 3 3 3 3 3 2 3 3 3 3 3 3 3 3 2 3 , : > > > 1 3 3 3 3 3 4 3 2 3 3 > > > 1 . F #.` { { ",
"{ { { { ` %.g   2 > 1 @                                           1 > > , :                                           = , > > < X                     > > > 1 . F +.{ { { ",
"{ { { { ` %.g   1 1 O i m b n n n n n n n n n n n n n n n n b m j # < > ; 3 b n n n n n n n n n n n n n n n n b n n n 0 % , 1 O f m n n n n n n n n v 2 : > 1 . F +.{ { { ",
"{ { { { ` %.g   2 2   z -.#.*.%.*.%.%.%.*.%.*.#.%.*.%.%.%.%.%.*.H   2 < * 7 { *.%.%.%.*.*.%.#.*.*.#.%.*.#.%.*.+.%.%.*.t O 1 3   Z -.O.#.%.#.*.%.*.*.{ 6 - > 2 . F +.{ { { ",
"{ { { { ` *.g   2 2   j +.( ` ` ` ` _ { ` _ ` { _ _ ' ' ' { ( O.S   2 > = 7 ~ { _ ` ` ` ` ` _ { ` ` { ( ` ` ) { { { { t + 1 2   N #._ ` ` ` ` ` ' ` E 5 - > 2 . D +.` { { ",
"{ { { { ` #.g   2 2   k %.` { { { { { { { { { { { { { { { { { O.D   2 , * 7 / | { { } } { { { { { ` { { { { { { { { { t + 1 2   N #.` { {  .{ { {  .^ 6 ; > 1 . F +.{ { { ",
"{ { { { ` %.g   2 2   k %._ { { { { { { { { { { { { { { { { { #.D   1 < = 7 / | { { { { { { { { { ` } } { { { { [ { O.t + < 3   N *.` { { { { { { O.^ 5 - > 2 . F #.{ { { ",
"{ { { { ` %.g   2 2   k %.{ { { { { { { { { { { { { { { { { _ O.D   1 , * 7 / | { { { { { { { { { } } ` [ { { { [ { { t + < 2   N #.` { { { { { { } ^ 5 ; > 2   D +.` { { ",
"{ { { { ` %.g   1 2   k %.` { { { { { { { { { { { { { { { { { #.D   2 , * 7 / | { { { { { { { { } } } ` ) | [ | [ [ | r + 1 3   N *.` { { { { { _ } ^ 5 - > 2 . F #.{ { { ",
"{ { { { ` %.g   2 2   l %.` { { { { { { { { { { { { { { { { _ %.D   2 , * 7 / | { { { { { { { { ` ` } } | { { { { [ | r + 1 3   N #.` { { { { { } { ^ 5 - > 1 . F #.{ { { ",
"{ { { { { #.g   1 2   k %.` { { { { { { { { { { { { { { { { ( %.D   2 > * 7 / | `  .| { { { { { } } } ` { { { { { {  .t + 1 2   B %._ { { { { { {  .^ 5 = > 2 . G #.`  .` ",
"{ { { { ` #.g   2 2   k %.` { { { { { ` { { { { { { { { { { { O.D   2 < * 7 / | { { ` | { { { { } ` } } { { { { { {  .t + 1 2   B %._ { { { { { { | ^ 5 ; > 1 . G  .` { { ",
"{ { { { ` *.g   2 2   j %._ _ ` ` ` ` _ ` ` { ` ` ` ` ` { ` ` O.S   2 > = 7 ~ { ` ` ` ` ` ` { ) ` ` ` ` ` ` ` ` { ` { t + 1 2   M %.( { { _ _ ` _  .E 5 ; > 2 . D  .`  . .",
"{ { { { ` %.g   2 2   l -.O.%.%.%.%.%.*.#.*.#.#.%.%.%.%.#.%.#.*.H   2 > * 7  .*.#.#.%.%.%.%.%.%.*.#.#.#.%.%.%.%.#.%.%.t O 1 3   C -.O.%.%.%.%.%.%.%.{ 6 = < 1 . J  .` { ` ",
"`  .`  .` #.g   1 1 o s A V C C C C C C C C C C C C V C C C V A v O 1 > ; 5 N C C C C C C C V C C C C C C C C C C C C w % < 1 X k A V C C C V C C C N 3 : > 1   G #.| |  .",
" .`  .` ` #.g   2 > < @                                           < > > > :                                           = > > > < X                     : > > 2 . S  .` ` { ",
"`  .`  .` *.g   2 > > 1 3 2 2 2 2 2 2 3 3 2 2 2 2 3 3 2 2 2 2 3 1 > > > > > 3 3 2 2 2 4 3 2 2 2 2 2 2 4 2 2 3 2 2 2 2 > > > > > 2 2 3 2 2 2 2 2 3 3 2 > > > 2 . G #.`  .` ",
" .`  .` ` %.g   1 > > > > > > > > > > > > > > > > > > > > > > : > > > > > > > > > > > > > > > > > > > > > > > > > > > > > > > > > > > > > > > > > > > > > > 1 . G  .`  . .",
"`  .`  .` *.g   2 > > > 2 2 2 2 2 2 2 2 2 2 2 2 2 2 2 < > > > > > > > > > > > > > > > > > > > > > > > > > > > > > > > 1 2 2 2 2 2 2 1 2 2 2 2 2 2 2 2 > > > 1 . D  .} } ` ",
" .`  .` ` %.g   2 > > $                               # , > > > > > > > > > > > > > > > > > > > > > > > > > > > > > , .                               > > > 2 . J  .) } } ",
"`  .`  .` %.g   2 < % e g d f f f f f f f f f f f d g r $ 1 > > > > > > > > > > > > > > > : > > > > > : > > > > > > : s f f f f f f f f f f f f f f d 1 : > 2 . G ..| } ` ",
" .`  .` ` %.g   2 2   l -.O.#.#.#.%.#.#.%.#.#.%.%.+.-.v   3 > > > > > > > > : > > > > > > > > > > > > > > > > > > > & ~ *.%.#.#.%.%.#.%.#.%.#.#.%.%.` 7 - > 1 . S  .} } } ",
"`  .`  .` #.g   2 2   j +.( _ { ` ` ` ` ` ` ` ` { _ %.c   2 > > > > > > > > > > > > > > > > > > > > > > > > > > > > % I { _ _ _ ` { ( ` { ( { _ ` { ^ 5 - > 2 . J  .) ` } ",
" .`  .` ` #.g   2 2   k %.{ { { { { { { { { { { { ` %.c   3 > > > > > > > > > > > > > > > > > > > > > > > > > > > < & Y @.{ { { { { { { { { { { { { ^ 5 ; > 2   F  .} } } ",
"`  .`  .` *.g   1 2   k %._ { { { { { { { { ` ` ` ` #.c   2 > > , 1 1 2 2 1 1 1 2 1 1 2 1 1 2 1 1 1 1 1 2 1 > > > > & Y O.) ` { { { { { { { { { {  .~ 5 - > 1 . J } } } ` ",
" .`  .` ` #.g   2 2   j %.{ { { { { { { { { O.#.#. .*.b   2 > , *   X . . . X . X . . . X . X . . X . . . o > > > < % E +.O.+.+.{ { { { { { { { {  .~ 5 - > 2   J | ` ` } ",
"{ ` `  .` %.g   2 2   k @.{ { { { { { { { { K D F F P g   1 < * 9 a p p p p p p p p p p p p p p p p p p a i : > > > = C L D G D ~ O.{ { { { { { {  .~ 5 ; > 1 . G O.`  .{ ",
" . .{ { ` %.g   2 2   k @.( { { { { { { ` O.r   o     % , , 2   d *.O.O.@.@.%.%.O.O.@.+.%.@.O.O.@.+.@.O.@.R $ < > > > X     O   M %.( { { { { { {  .~ 5 ; > 1 . D O.` { { ",
"` {  .` ` *.g   2 2   k %.{ { { { { { { ` +.i # 4 2 1 , > , 1   d O.( ' { ' { { { { ' { { { { { _ { { [ | L % , > > > 2 2 2 5   B %.{ { { { { { { { ~ 5 = > 2 . G #.` { { ",
"`  .{ ` ` #.g   1 2   k @.{ { { { { { | ` | u O 1 > > > > > 2   d @.{ { { { { { { { { { { { { { { { { { | I % < > > > > > > 2   N %.( | { { { { { O.^ 5 ; , 1 . D +.` { { ",
"{ {  .` ` %.g   2 2   j #.{ ( { ` ` ` ` ` | u o < > > > 1 1 4 o d O.{ { { { { { { { { { { { { { { { { { O.L * 1 2 < < , > > 2   N %.` ( [ ) { { { { ~ 5 - > 1 . D #.` { { ",
" .`  .{ ` %.g   2 2   l *.{ +.O.+.+.+.+.O.%.i o 1 > < $ o o #   p %.( { { { { { { { { { { { { { { { { _ O.L   O o O o : > > 2   V %.O.| O.O.O.O.O.%.) 6 - < 2   G #.` { { ",
"`  .` { _ %.g   2 2   f R K K K K K K K K P t + 1 < * w i y u e l O.' { { { { { { { { | { { { { { { { { | T t u u u u 4 ; > 2   b R J L L H K K L I D 3 ; > 2 . D #.)  .{ ",
"{ { `  .{ %.g   1 > > * o O O O O O O O O O ; > > 3   M *.| O.O.O.{ { { { { { { { { { { { { { { { { { { { { +.O.| O.%.t + 1 > , % o O O O O o O O O + > > > 1 . F #.{ { { ",
" .` {  .` #.g   1 > > > 1 1 1 1 < 1 1 1 1 < > > > 2   m +.` { ` _ { { { { { { { { { { { { { { { { { { { { { { { { ) { t + < > > 1 1 1 1 1 1 1 1 1 1 < > > > 1 . F #.`  .{ ",
" .{ `  .` #.g   2 > > > > > > > > > > > > > > > > 2   M %.` { { { { { { { { { { { { { { { { { { { { { { { { { { { { { t + < > > > > : > > : > > > > > > > , 2   D #.{ ` ` ",
"` ` { { ` #.g   2 > > > < < < 1 > > > > > > < 1 1 4   m %.` { { { { { { { { { { { { { { { { { { { { { { { { { { { { | t # 2 < < , > > > > > 1 < < < < > > > 2 . D @.) O. .",
"{  . .` ` *.g   2 > < = + # @ @ # > > > > > $ + # =   m %.{ { { { { { { { { { { { { { { { { { { { { { { { { { { { { | e   % # + * , > > > ; + # # @ $ : > > 1 . G +.{ ( { ",
"`  .`  .` #.g   2 > ; 7 e e e e e > > > > > w e e r 7 N #.` { { { { { { { { { { { { { { { { { { { { { { { { { { { { | a w e e e 8 ; > > ; 6 e e e e e > > > 2 . D %.| | ` ",
" .`  .` ` #.g   1 2   k %.` | O.Y : > > > + K #.{ { }  .{ { { { { { { { { { { { { { { { { { { { { { { { { { { { { { { { | | { +.l   2 1   f @.{ | | ~ 5 - > 2   G  .` ) { ",
"`  .`  .` *.g   2 2   j %.{ { } Y : > > 1 + P O.`  . .` { { { { { { { { { { { { { { { { { { { { { { { { { { { { { { { { { { ) %.l   2 2   f %.{ { { ~ 5 - > 1 . D #.` { | ",
" .`  .` ` %.g   2 2   l %.` { } Y : > > > + K +.`  .`  .`  .{ { { { { { { { { { { { { { { { { { { { { { { { { { { { { { { { { %.l   2 2   f %.) { O.~ 5 - > 2 . G  .| | ` ",
"`  .`  .` *.g   2 2   k %._ {  .E : > > > @ K O.{ { | { | { { { { { { { { { { { { { { { { { { { { { { { { { { { { { { { { { ` %.l   3 2   f %._ {  .^ 5 ; > 1 . F +.{ { { ",
" .`  .` ` %.g   2 2   k %.{ _ O.Y : > > 1 @ K  .) | { { { { { { { { { { { { { { { { { { { { { { { { { { { { { { { { | { { { { %.l   2 1   f @.{ | { ^ 5 ; > 2 . F O._ { { ",
"`  .`  .` %.g   2 2   k %.` ` O.Y : > > 1 @ K #.` { { { { { { { { { { { { { { { { { { { { { { { { { { { { { { { { { { { { { ` %.l   3 2   f %.( {  .^ 5 = > 1 . F O.{ { { ",
" .`  .` ` %.g   1 2   k %.` ` | Y : > > > @ K  .` { { { { { { { { { { { { { { { { { { { { { { { { { { { { { { { { { { { { { { %.l   3 1   f %.{ { { ^ 5 ; > 2 . F +.' { { ",
"`  .`  .` #.g   2 2   k %.` {  .E : > > > @ K { { { { { { { { { { { { { { { { { { { { { { { { { { { { { { { { { { { { { { { ` %.l   2 2   f @.[ {  .^ 5 = > 2 . F +.{ { { ",
" .`  .` ` #.g   2 2   k *.` ( O.Y : > > 1 @ K O.` { { { { { { { { { { { { { { { { { { { { { { { { { { { { { { { { { { { { { { %.l   3 1   f @._  .{ ^ 5 ; > 1 . F +.{ { { ",
"`  .`  .` *.g   2 2   k &.( { O.Y : > > 1 @ J O.{ { { { { { { { { { { { { { { { { { { { { { { { { { { { { { { { { { { { { { ` %.l   2 2   f O._ ` { ( 5 - > 3 . F +.{ { { ",
" .`  .` ` #.g   1 2   l %.[ ) O.Y > > > > @ L O.` | { { { { { { { { { { { { { { { { { { { { { { { { { { { { { { { { { { { { { %.l   2 1   g &.{ { +.^ 5 - > 1   F +.( { { ",
"| ` `  .` %.g   2 2   k O./ ( { K : > > 1 + K +.{ { { { { { { { { { { { { { { { { { { { { { { { { { { { { { { { { { { { { { { @.l   3 1   f +.^ ( { R 5 = , 1 . F +.( { { ",
"{  .{ { ` %.g   2 > : 3 0 8 9 9 8 > > > 1 + K O.{ { { { { { { { { { { { { { { { { { { { { { { { { { { { { { { { { { { { { { { %.l   2 > : 3 9 9 9 9 8 , > , 2   F +.{ { { ",
"`  .{ ` ` *.g   2 > > : % % % % & > > > > @ K } { { { { { { { { { { { { { { { { { { { { { { { { { { { { { { { { { { { { { { ` %.l   3 > > : & & % % % , > > 1 . F +.{ { { ",
"` { { { ` #.g   1 > > > < , > 1 > > > > 1 @ K +.{ { { { { { { { { { { { { { { { { { { { { { { { { { { { { { { { { { { { { { { %.l   2 > > > < > , , , > > > 2 . F +.{ { { ",
" . .{ ` ` %.g   2 > > > > > > > > > > > 1 @ L O.( { { { { { | { { { { { { { { { { { { { { { { { { { { { { { { { { { { { { { ` %.l   2 > > > > > , > > > > > 1 . F +.{ { { ",
"{ ` {  .` %.g   1 > > > > > > > > > > > 1 O L O.{ { { { { { { { { { { { { { { { { { { { { { { { { { { { { { { { { { { { { { { %.l   2 > > > > > > > > > > > 1 . F +.( { { ",
"` { `  .` %.g   2 > > > : : : : : > > > > @ H O.{ { { { { { { { { { { { { { { { { { { { { { { { { | | { { { { { { { { { { { ` %.l   2 > > : ; : : : : > > > 1 . F +.{ { { ",
" . .` { ` %.g   2 2   g ( Y R / G : > > 1 @ L O.{ { { { { { { { { { { { { { { { { { { { { { { %.V 6 e e 0 a O.{ { { { { { { { %.l   2 2 . d ( R E E H 5 ; > 2 . F +.{ { { ",
"{ `  .{ ` #.g   2 2   l %.{ | O.! : > > 2 @ K  .| | { { { { { { { { { { { { { { { { { { { { _ %.M   ; %   r O.{ { { { { { { { %.l   3 1   g *.| { O.( 5 = , 2   H O.{ { { ",
"{  .` { ` #.g   1 2   k @.{ ( O.R ; > > > @ K  .` { { { { { { { { { } { { { { { { { { { { { ` %.M   3 2 @ y { { { { { { { { { %.l   3 1   f #._ { { ~ 5 ; > 1 . F O.( { { ",
"` `  . .` *.g   2 2   k %.{ {  .R : > > 1 @ K O.{ { { { { { {  .{ { { { { { { { { { { { { { { %.N   4 1 O y  .{ { { { { { { ) @.l   3 2   f #.` { O.^ 5 = > 1 . D O.{ { { ",
" .{ { ` ` %.g   2 2   k %._ _ O.T ; > > > @ K | ` { { { { { { { { { { { { { { { { { { { { } ` %.N   4 2 @ y  .{ { { { { { { { @.l   2 1   f #.` { { ~ 5 ; > 2 . H O.{ { { ",
"`  .`  .` #.g   2 2   k %.` `  .R ; > > 1 + P O.` { { { { { { { { { { { { { { { { { { { { { _ #.m   * #   r | { { { { { { { { %.l   3 3   f %.` { O.~ 5 = , 1 . D @.` { { ",
" .`  .` ` #.g   2 2   k %._ { O.Y : > > 1 + K { ` { { { { { { { { { { { { { { { { { { { { { {  .( K P L K R { { { { { { { { { %.l   2 1   f %.` {  .^ 5 ; , 2 . D @.{ { { ",
"`  .`  .` *.g   1 2   h %.{ {  .R : > > > @ K O.{ { { { { { { { { { { { { { { { { { { { { { } { { O.O.O.O.O.{ { { { { { { { { %.l   3 1   f %._ {  .^ 5 = > 2   G %.` { { ",
" .`  .` ` %.g   2 3   l %._ `  .Y : > > 1 @ K O.` { { { { { { { { { { { { { { { { { { { { { { { { [ { ) ) ` { { { { { { { { { %.l   2 2   f %._ {  .E 5 ; , 1 . D @.` { { ",
"`  .`  .` *.g   2 2   j %.' { O.Q > > > > @ K *.{ { { { { { { { { { { { { { { { { { { { { { { { { { { { { { { { { { { { { { ) %.l   3 1   f %.' { } ^ 5 = > 2 . D #.{ { { ",
" .`  .` ` %.g   2 2   j %.( _  .Y > > > > @ K  .` { { { { { { { { { { { { } { { { { { { { { { { { { { { { { { { { { { { { { ) %.l   3 2   f @.' _ { ^ 5 ; , 1 . G #.` { { ",
"`  .`  .` %.g   2 2   l *.@.O.%.^ > > > > # P  .` { { { { { { { { { { { { { { { { { { { { { { { { { { { { { { { { { { { { { { %.l   3 1   g *. .#.%._ 5 = > 1 . D #.` { { ",
" .`  .` ` %.g   2 , & q s i p p u > > > > @ I  .{  .{ { { { { { { { { { { { { { { { { { { { { { { { { { { { { { { { { { { { { @.l   3 > * 9 p p p p i 1 > > 2 . D #.{ { { ",
"`  .`  .` #.g   2 > > % . X . X X > > > 2 @ K  .` { { { { { { { { { { { { { { { { { { { { { { { { { { { { { { { { { { { { { { @.l   2 > > & . X X . o > > > 2 . F #.` { { ",
" .`  .` ` #.g   1 > > > 2 2 1 1 2 > > > > @ K  .{ { { { { { { { { { { { { { { { { { } { { { { { { { { { { { { { { { { { { { { %.l   2 > > > 2 1 1 1 1 > > > 1 . F #.` { { ",
"`  .`  .` *.g   2 > > > > > > > > > > > 1 @ I  .` { { { { { { { { { { { { { { { { { { { { { { { { { { { { { { { { { { { { { { %.x   2 > > > > > , > > > > > 1   D #.{ { { ",
" .`  .` ` #.g   2 > > > 2 2 2 2 1 > > > > + P  .`  .{ { { { { { { { { { { { { { { { { { { { { { { { { { { { { { { { { { { { ( %.l   3 > > 1 2 1 3 2 1 , > > 1 . F #.` { { ",
"`  .`  .{ %.g   2 > < $           > > > 1 + L O.( { ` {  . .` { { { { { { { { { { { { { { { } { { { { { { { { { { { { { { { | %.l   2 > , %           > > > 1 . F #.` | ` ",
" .`  .` ( %.g   2 1 X d F S S D V : > > 1 + J O.` )  .{ ` { `  .{ { { { { { { { { { { { { { { { { { { { { { { { { { { { { | ) @.l   2 1 o p F S S D Z 3 ; , 2 . F #.` `  .",
"`  .`  .{ @.g   2 2   l -.O.O.&.~ : > > 1 + L +.| | ` `  .` {  .{ { { { { { { { { { { { { { { { { { { { { { { { { { { { { { { @.l   2 2   g *.@.+.%._ 5 = , 2 . D #.{ | ` ",
" .`  .` ` *.g   2 2   k +.( { { Y : > > 1 + L | ` { {  .{ { | ` { { { { { { | { { { { { { { { { { { { { { { { { { { { { { { { %.l   2 2   f O.( { { ~ 5 ; > 1   G #.` `  .",
"`  .`  .{ @.g   2 2   j %.` { O.Y : > > 1 @ L O.`  . .` ` `  .{ { { { { { { { { { { { { { { { { { { { { { { { { { { { { { { _ @.l   3 1   f %._ { { ~ 5 = < 1 . D #.`  . .",
" .`  .` { %.g o 4 6 . l %.` {  .R 2 3 3 4 * L O.` ` { {  .{  .` { { { { { { { { { { { { { { { { { { { { { { { { { { { { { { [ +.x   5 5 o g %.' { O.~ 8 1 3 5 + F #.` ` ` ",
"`  .`  .( %.d         g %.` {  .I           K O.{  .`  .{  .{ ` { { { { { { { { { { { { { { { { { { { { { { { { { { { { { { { +.h         s %.( { +.~ o         D #.`  . .",
" .`  .` ( O.G V Z C V G +.` { { ( C C C C C ( { { ` {  .` ` {  .{ { { { { { { { { { { { { { { { { { { { { { { { { { { { { { { O.H V Z Z C D O.{ { { ( C C Z C C Q  .| ` ` ",
"`  .`  .` { #.#.#.#.#.+.{ { { {  .%.%.#.#.#.{  . .` ` {  . .` { { { { { { { { { { { { { { { { { { { | { { { { { { { { { { { { { %.%.%.%.%.O.{ {  .`  .#.%.%.#.%. . .`  . .",
" .`  .`  .` ` ` ` _ ` { { { { { { ` ` ` ` ` ` {  .{  .{ ` { `  .{ { { { { { { { { { { { { { { { { { { { { { { { { { { { { { { { _ { ( { _ { { { `  .` ` ` ` ` ` ` `  .` ` ",
"`  .`  .{ { { { { { { { { { { {  .{ { `  .|  .` ` {  .` { ` {  .{ { { { { { { { { { { { { { { { { { { { { { { { { { { { { { { { { { { { { { { {  .` `  .| { { {  .` `  . ."
};
