/* XPM */
static char *f1cecffe35ae40239643f6ff9264f4dbIQv0VfqXX9WTDLBb[] = {
/* columns rows colors chars-per-pixel */
"85 91 95 2 ",
"   c #000000",
".  c #090000",
"X  c #120000",
"o  c #1B0000",
"O  c #220000",
"+  c #270008",
"@  c #29000E",
"#  c #2C0014",
"$  c #2F0019",
"%  c #30001A",
"&  c #350720",
"*  c #360C22",
"=  c #371224",
"-  c #391726",
";  c #391926",
":  c #3B1E29",
">  c #3E232C",
",  c #40272E",
"<  c #40282F",
"1  c #432C32",
"2  c #463135",
"3  c #483537",
"4  c #4A3A3A",
"5  c #534643",
"6  c #554945",
"7  c #5A4F4A",
"8  c #5D534E",
"9  c #605750",
"0  c #665E56",
"q  c #676058",
"w  c #6B655B",
"e  c #6E685E",
"r  c #716C62",
"t  c #767166",
"y  c #797569",
"u  c #7D7A6D",
"i  c #817E70",
"p  c #858374",
"a  c #888777",
"s  c #898778",
"d  c #8A8979",
"f  c #90907F",
"g  c #939382",
"h  c #979886",
"j  c #9C9D8A",
"k  c #A2A590",
"l  c #B7BBA3",
"z  c #BDC2A9",
"x  c #C1C6AD",
"c  c #C3C9AF",
"v  c #C4C9B0",
"b  c #C8CEB3",
"n  c #CED4B9",
"m  c #D0D7BB",
"M  c #D7DFC2",
"N  c #D8DFC3",
"B  c #D8E0C3",
"V  c #D9E0C3",
"C  c #D9E1C4",
"Z  c #DAE1C4",
"A  c #DAE2C5",
"S  c #DCE3C6",
"D  c #DCE4C6",
"F  c #DEE6C9",
"G  c #DFE7C9",
"H  c #E0E7CA",
"J  c #E0E8CA",
"K  c #E1E9CB",
"L  c #E2EACC",
"P  c #E4ECCD",
"I  c #E4ECCE",
"U  c #E4EDCE",
"Y  c #E5EECF",
"T  c #E6EFD0",
"R  c #E7EFD0",
"E  c #E7F0D1",
"W  c #EAF3D3",
"Q  c #EBF3D4",
"!  c #EBF4D4",
"~  c #EBF4D5",
"^  c #ECF4D5",
"/  c #ECF5D6",
"(  c #EDF6D6",
")  c #EFF8D7",
"_  c #EFF8D8",
"`  c #EFF9D8",
"'  c #F0F9D8",
"]  c #F0F9D9",
"[  c #F0FAD9",
"{  c #F2FBDB",
"}  c #F3FCDB",
"|  c #F3FDDC",
" . c #F4FDDC",
".. c #F7FFDF",
"X. c #F8FFE0",
/* pixels */
"( ( ( ( ] ] } ] } } ] } ] } ] } } } ] } } ] } ] } } ] } ] } ] } ] } ] } } ] } } } } } } _ | _ | } ] } } } ] } } ] } ] } } ] } } ] } } ] } } } } ] } } ] ] } ] } _ ( ( ( ( ",
"( ( ( ( J M Z V V V N Z Z V V V V V V V V V V V V V V V V V Z V V V V Z V V V V V V V B V V V V V V V V V Z V V V V V V V V V V V V V V V V V V V V V V V V Z V G ) ( ( ( ",
"( ( (  .h   # o o o o o o o o o o o o o o o o o o o o o o o o o o o o o o o o o o o o o o o o o o o o o o o o o o o o o o o o o o o o o o o o o o o o o o o #   h  .( ( ( ",
"( ( ~  .j   4 1 1 1 1 1 1 1 1 1 1 1 1 1 1 1 1 1 1 1 1 1 1 1 1 1 1 1 1 1 1 1 1 1 1 1 1 1 1 1 1 1 1 1 1 1 1 1 1 1 1 1 1 1 1 1 1 1 1 1 1 1 1 1 1 1 1 1 1 1 1 1 4   j  .~ ( ( ",
"( ( (  .j   2 > > > > > , > > > > > > , > > > > > > > > > > > > > > > > , > > > > > > > > > > > > > > > > > > > > > > > > > > > > > > > > > > , , , > > > > 2   j  .~ ( ( ",
"( ( (  .j   2 > > > 1 1 1 1 < 1 1 1 1 < < 1 1 1 1 1 1 1 1 1 1 < > > > > > 1 1 1 < 2 2 < < 1 1 1 1 1 1 1 1 < 1 1 < 1 1 > > > > > < 1 1 1 1 1 < 1 1 < 1 , > > 2   j  .! ( ( ",
"( ( ~  .j   2 > > ; o O O O O o O o o O O O O o O O O o o O o $ , : > > > O o O o O O O o O O O O O o O o O O O O o + > > > > > # o O o O O O o O O o ; > > 1   j  .~ ( ( ",
"( ( ~  .j   2 > : 4 y t t t y y t y y t y t t t t t t y y t y 0 * , > > , r y t y t t t y t t t t t y y y t t t t y r : > > > = w y t y t t t y y t y 4 ; , 2   j  .~ ( ( ",
"( ( (  .j   2 1 o u  .] ] ] ] ] ' } ' ' } ' ' } ] ' ] ] ] _ X.v   3 > ; 3 R | _ ] _ ] ] ] ] | } } _ ] ] ] } ) } ]  .G # < > 3   m X.] ] ] ] ] ] } _ X.u o 1 2   j  .( ( ( ",
"( ( (  .j   2 1 o u ] ~ ( ( ( ( ( ! ! ( ( ! ( ! ( ( ( ~ ( Q | x   2 , ; 3 P _ ( ( ( ( ( ( ~ Q ~ ! ) ! ! ! ~ ~ ! ~ ] Z $ > > 2   n ] Q ( ( ( ( ( ~ ~ _ u o 1 2   j  .( ( ( ",
"( ( ~  .j   2 1 o u ] ( ( ( ( ( ( ( ( ( ( ( ( ( ( ( ( ( ( ~  .x   3 > ; 3 P _ ( ( ( ( ( ( ( ( ( ) ~ ( ( ) ( ~ ) ( ] D # < > 2   n | ( ( ( ( ( ( ~ ) _ u o 1 2   j  .( ( ( ",
"( ( ~  .j   2 2 o u ] ( ( ( ( ( ( ( ( ( ( ( ( ( ( ( ( ( ( ! | x   3 , ; 3 U _ ~ ( ( ( ( ( ( ( ( ~ ) ( ( ( ( ) ~ ( ] D $ < > 2   n  .W ( ( ( ( ( ~ ~ } u o 1 2   j  .W ( ( ",
"( ( ~  .j   2 1 o u ] ( ( ( ( ( ( ( ( ( ( ( ( ( ( ( ( ( ( ~ | x   3 > ; 3 U _ ( ( ( ( ( ( ( ( ( ) ~ ) ~ ~ ) ~ ) ~ } D # > > 2   n | ( ( ( ( ( ( ) ~ _ u o 2 2   j  .( ( ( ",
"( ( (  .j   2 1 o u ] ! ( ( ( ( ( ( ( ( ( ( ( ( ( ( ( ( ( ~ | c   3 , ; 3 U _ ~ ( ( ( ( ( ( ( ( ~ ) ~ ) ) ~ ) ~ ~ _ D $ 1 > 2   n | ~ ( ( ( ( ( ~ ) } u o 1 2   j  .~ ( ( ",
"( ( !  .j   2 1 o u } ( ( ( ( ( ( ( ( ( ( ( ( ( ( ( ( ( ( ~  .x   2 > ; 3 U ] ( ( ( ( ( ( ( ( ( ) ~ ) ~ ~ ) ~ ) ~ } D # < > 2   n | ~ ( ( ( ( ( ) ~ _ u o 1 2   j  .( ( ( ",
"( ( (  .j   2 1 o u ] ~ ( ( ( ( ( ( ( ( ( ( ( ( ( ( ( ( ) Q  .x   3 > : 3 U ] ( ( ( ( ( ( ( ( ( ~ ) ~ ) ) ~ ) ~ ~ } D $ < > 2   n | ~ ( ( ( ( ( ( ~ | u o 1 2   j  .( ( ( ",
"( ( ~  .j   2 1 o u ] ( ( ( ( ( ( ( ( ( ( ( ( ( ( ( ( ( ( W  .x   3 > ; 3 P ( ( ( ( ( ( ( ) ( ] ) ) ~ ) ( ( ( ( ~ _ D # < > 3   n } ( ( ( ( ( ( ( ( ] u o 1 2   j  .! ( ( ",
"( ( (  .j   2 1 o u ] ~ ~ ( ~ ( ~ ( ~ ( ( ! ! ( ( ( ( ( ( W  .x   3 > ; 3 P ' ' ! ( ! ( ! W ( ( ! ~ ~ ! ( ) ~ ( ) _ Z $ > > 2   n } ! ( ! ( ! ( ( ! ) u o 1 2   j  .! ( ( ",
"( ( !  .j   2 1 o u  .) ] ] ] ] ] ] ] ] ] ] ] ] ] ] ] ] _ ( ..c   3 > : 3 R ] ' ] ] ] ] ] ] ] ] _ } ) } ] ] _ } ) | G # > > 3   m  .' ] ] ] ] ] ] (  .u o 1 2   j  .~ ( ( ",
"( ( !  .j   2 1 O t U G J J J J J J J J J J J J J J J J H G R l   3 > ; 3 V U J J J J J J J J J G G G G J J G J G U m % < > 2   c U J J J J J J J G U y O 1 2   j  .Q ( ( ",
"( ( (  .j   2 > > > % = * * * * * * = % * * * * * * * * * = & - > > > > > * * * * * * * % = * * * * = * * * * * * * = > > > > > = % = * * * * = * * * > > > 2   j  .( ( ( ",
"( ( ~  .j   2 > > > < < < > < > , , < , > < , > > , , , > > > > > > > > > > > > > , < > < > < > > > > > > < > > > > < > > > > > , , < < > < > > > > > > > > 2   j  .( ( ( ",
"( ( (  .j   2 > > > > > > > > > > > , > > > > > > > > > > > > > > > > > > > > > > > > > > > > > > > > > > > > > > > > > > > > > , > > > > > > > > > > > > > 2   j  .( ( ( ",
"( ( (  .j   2 > > > < < < < < < < < < < < < < < < < > > > > > > > > > > > > > > > > > > > > : > > > > > > > > > > > > < < < < < < < < < < < < > 1 < < > > > 2   j  .W ( ( ",
"( ( ~  .j   2 > > : # # # # # # # # # # # # # # # # : , > > > > > > > > > > > > > > > > > > > > > > > > > > > > > > : # # # # # # # # $ # # # # # % # : > > 2   j  .( ( ( ",
"( ( (  .j   2 > > 3 q 0 0 0 0 0 0 0 0 0 0 0 0 0 0 0 2 : > > > > > > > > > > > > > > > > > > > > > > > > > > > > > > 2 q 0 0 q 0 0 0 0 0 0 0 0 0 0 0 q 3 : , 2   j  .W ( ( ",
"( ( !  .j   2 1 o u ] ~ ( ( ( ( ( ( ( ( ( ( ( ( ( ] t O 1 > > > > > > > > > > > > > > > > > > > > > > > > > > > < O t ) ~ ) ~ ) ( ( ( ( ! ) ~ ) ( ~ ] u o 1 2   j  .( ( ( ",
"( ( (  .j   2 1 o u ] ( ( ( ( ( ( ( ( ( ( ( ( ( ( ] t O 1 > > > > > > > > : > > > > > > > > > > > > > > > > > > 1 O t } ) ~ ) ~ ( ( ( ( ) ~ ) ~ ( ( ] u o 1 2   j ..( ( ( ",
"( ( (  .j   2 1 o u } ~ ( ( ( ( ( ( ( ( ( ( ( ( ( ] t O 1 > > > > > > > > > > > > > > > > > > > > > > > > > > > 1 O r ' ! ( ( ( ( ( ( ( ( ( ( ( ( ( ] u o 2 2   j  .( ( ( ",
"( ( (  .j   2 1 o u ] ~ ( ( ( ( ( ( ( ( ( ( ( ( ( ( t O 1 > > < 1 > 1 > > 1 > > < < < < < < < < > < < > < > > > 1 O t ] ! ( ( ( ( ( ( ( ( ( ( ( ( ! } u o 1 2   j  .W ( ( ",
"( ( !  .j   2 1 o u ] ( ( ( ( ( ( ( ( ( ) ' ' ( ' } t O < > > ; # % % % $ % % % % $ $ $ $ % $ $ % % % % $ ; > > 1 O y ] ] ( ) ) ( ( ( ( ( ( ( ( ( ( ] u o 1 2   j  .W ( ( ",
"( ( !  .j   2 1 o u } ~ ( ( ( ( ( ( ( ( W U U P U U r + 1 > ; 4 0 9 9 9 9 9 9 9 9 9 9 9 9 9 9 9 9 9 9 8 0 4 ; < < + r U U U U U W ) ( ( ( ( ( ( ( ( ] u o 1 2   j  .W ( ( ",
"( ( (  .j   2 2 o u | ~ ( ( ( ( ( ( ( | m . 4 1 2 1 > > > 2   k } ~ ~ ( ~ ( ( ~ ~ ~ ( ~ ( ~ ( ( ~ ( ~ W  .k   2 > > > 2 1 1 4 . n | ~ ( ( ( ( ( ( ~ ] u o 1 2   j  .~ ( ( ",
"( ( (  .j   2 1 o u _ ~ ( ( ( ( ( ( (  .n   1 : : : > > > 2   k | ~ ( ( ( ( ( ( ( ( ( ( ( ( ( ( ( ( ( (  .k   2 > > > : : : 1   n | ~ ( ( ( ( ( ( ( ] u o 1 2   j  .Q ( ( ",
"( ( ~  .j   2 1 o u ] ( ( ( ( ( ( ( ( ] n   2 > > > > > > 2   k  .~ ) ( ( ( ( ( ( ( ( ( ( ( ( ( ( ( ( W  .k   2 > > > > , , 3   n } ~ ( ( ( ( ( ( ( ] u o 1 2   j  ._ ( ( ",
"( ( ~  .j   2 1 o u | ~ Q ( ( ( ( ( ~ } n   2 > > > > < < 3   k  .~ ( ( ( ( ( ( ( ( ( ( ( ( ( ( ( ( ( W  .k   3 < , > > > > 2   n } ~ ( ( ( ( ( ( ( ] u o 1 2   j  .( ( ( ",
"( ( ~  .j   2 1 o u  ._ ) _ _ _ ( _ (  .n   2 > > > & % % >   k  .( _ _ ( ( ] ( ] _ _ _ _ ) ' ] ' ( _ (  .k   > % % % > > > 1   n  .) ) _ _ _ ) _ ) | u o 1 2   j  .! ( ( ",
"( ( (  .j   2 1 o y ~ R R U E U R R U ( b   2 > > > 6 8 8 8 > k ( P R U U W U W R U R U R R R U U W R P _ k > 9 8 8 6 > > > 2   b ~ U E R U E E R U Q y o 1 2   j  .! ( ( ",
"( ( !  .j   2 > > > 4 4 4 4 4 4 4 4 4 4 3 > > > > $ Z ( ! E } x X 5 4 4 4 4 4 4 4 4 4 4 4 4 4 4 3 4 4 5 X x ] Q ! ) V % , > > > 3 4 4 4 4 4 4 4 4 4 4 , > > 2   j  .~ ( ( ",
"( ( (  .j   2 > > > - ; - - - : - ; - - > > > > > $ G ] ) ~  .x   1 - ; - ; - - - - - ; - - ; ; ; ; - 1   x  .( ( ] D % , > > > : - - - - - ; ; ; - - > > > 2   j  .~ ( ( ",
"( ( !  .j   2 > > > > > > < > > > > > > > > > > , $ D ] ( !  .x   3 > , > > > > , > , > > > > > > > > 3   z } ~ ( ] D $ < > > > > > , > , > > > > < > > > > 2   j  .( ( ( ",
"( ( (  .j   2 > > > > > > > > > > > > > > 1 > > 1 % D ] ! !  .x   3 > > > > > > > > > > > > > > > > > 3   c | ~ ( ] D % < , > , > > > > > > 1 > > > > > > > 2   j  .( ( ( ",
"( ( !  .j   2 > > > & & = * & : > > > > > % * * - o G _ ( (  .c   3 > > > > > > > > > > > > > > > > > 3   c  .) ( ] G o ; * * % : > > > > : % * = * & > > > 2   j  .( ( ( ",
"( ( !  .j   2 > > 1 6 5 6 6 6 2 > > > > 2 6 6 5 6 4 M Q U E ] z   2 > > > > > > > > > > > > > > > > > 3   z ) R E ( N 4 6 5 6 7 2 > > > > 2 6 6 5 6 6 1 > > 2   j  .W ( ( ",
"( ( (  .j   2 1 o u ( W W E ( a . 1 1   d ] W W W ( u 1 5 5 5 3 : > > > > > > > > > > > > > > > > > > > > 4 5 5 5 1 u ~ W W E ) d   2 1 . s ( E W E ( y o 1 2   j  .W ( ( ",
"( ( (  .j   2 1 o u ] ( ( (  .d . 2 2   g  .( ( ( ] r X : = * ; > > > > > > > > > > > > > > > > > > > > > : % - : X r ] ( ( (  .g   2 1 . d  .( ( ( | u o 1 2   j  .( ( ( ",
"( ( (  .j   2 1 o u ] ( ( ~ } d . 2 2   f | ~ ( ( _ t O 1 , > > > > > > > > > > > > > > > > > > > > > > > > > > 1 + t ( ( ( ~ | f   2 2 . d | Q ( ( ] u o 1 2   j  ._ ( ( ",
"( ( (  .j   2 1 o u ] ~ ( ( } d . 1 2   f  .~ ( ( ] t O 1 > > > > > > > > > > > > > > > > > > > > > > > > > > > 1 O t ) ( ( ~  .f   2 1 . d ] ( ( ( ] u o 1 2   j  .Q ( ( ",
"( ( W  .j   2 2 o u ] ( ( Q } s . 2 2   f  .~ ( ( ] t O 1 > > > > > > , > > > > > > > > : > > > > > > > > > > > < O t ) ( ( ~  .f   2 2 . s } ~ ( ( ] u o 1 2   j | ! ( ( ",
"( ( (  .j   2 1 o u ] ( ( ( } s . 2 1   f  .~ ( ~ ] t O 1 > > > > > > : > > > > > > > > > > > > > > > > > > > > 1 O t ] ~ ( ~  .f   2 1 . s } ~ ( ~ ] u o 2 2   j } ! ( ( ",
"( ( ~  .j   2 1 o u ] ( ( ~ } s . 1 2   f  .~ ( ( ] t O < > > > > > > > > > > > > > > > > > > > > > > > > > > > 1 O r ] ( ( ~  .f   2 2 . d } ~ ) ~ } u o 1 2   j  .! ( ( ",
"( ( (  .j   2 1 o u ] ( ( ( } s . 2 1   f  .~ ( ~ ) t O 1 > > > : > > > > > > > > > > > > > > > > > > > > > > > 1 O t ] ~ ( ~  .f   1 2 . d } ~ ( ( ] u o 1 2   j  .~ ( ( ",
"( ( (  .j   2 1 o u ] ~ ( ( } s . 2 2   f  .~ ( ( _ t O 1 > > > , > > > > > > > > > > > > > > > > > > > > > > > 1 O t ] ( ( ~  .g   2 1 . d | ~ ( ~ } u o 1 2   j  .( ( ( ",
"( ( (  .j   2 1 o u } ( ( ~ } s . 1 2   f  .~ ( ( ] t O 1 > > > > > > > > > > > > > > > > > > > > > > > > > : > 1 O t ] ~ ( ~  .g   1 2 . s | Q ) ~ ] u o 1 2   j  .( ( ( ",
"( ( ~  .j   2 1 o u ] ( ) ~ } d . 2 2   f  .~ ( ~ ] t O 1 > > > > > > > > > > > > > > : > > > > > > > > > > > > 1 O t _ ( ( ~  .d   2 2 . d | ( ( ( ] u o 1 2   j  .~ ( ( ",
"( ( !  .j   2 1 o u ) ! ! ~ ] a . 1 2   f  .~ ( ( _ r O < > > > > > , : > : > > > > > , > > > > > > > > > > > > 1 O t ] ~ ( ~  .g   2 1 . a _ Q ~ ~ ) u o 1 2   j  .~ ( ( ",
"( ( ~  .j   2 > : 2 9 8 8 8 9 3 : > 2   f  .~ ( ( ] t O 1 > > > > > > > : > > > > > > > > > > > > > > > > > > > 1 O y ) ( ( Q  .f   2 > > 2 9 8 8 8 8 2 > > 2   j  .! ( ( ",
"( ( ~  .j   2 > > : $ $ $ % $ ; > > 2   f  .~ ( ( ] r O 1 > > > > > > > > > > > > > > > > > > > > > > > > > > > 1 O r ' ( ( W  .f   1 > > : $ % % % $ > > > 2   j  .( ( ( ",
"( ( ~ | j   2 > > > > 1 > > 1 > > > 2   f  .~ ( ( ] y O , > > > > > > > > > > > > > > > > > > > > > > > : > > > 1 O r ' ( ( Q  .f   2 > > > > 1 > 1 > > > > 2   j  .( ( ( ",
"( ( Q X.j   2 > > > > > > > > > > > 1   f  .~ ( ( ] r O 1 > > > : , > > > > > > > > > > > > > : > > > > > > > > 1 o y ] ( ( ~  .f   2 > > > > > > > > > > > 2   j  .( ( ( ",
"( ( ~  .j   3 > > > : > > > : > > > 2   g  .Q ( ( ] r O > > > > > > > > > > > > > : > > > > > > > > > > > > > > 1 O t ] ~ ( Q | f   2 > > > > > : > : > > > 2   j  .! ( ( ",
"( ( (  .j   2 > > > > > > 1 > > > > 2   d  .Q ( ( _ y O 1 > > > : > > > > > > > > > > > > > > > > > > > > > > > 1 O t ] ( ( Q  .f   1 > > > > > > 1 > > > > 2   j } ! ( ( ",
"( ( ~  .j   3 1 o y E J J L ~ p X 1 2   g  .Q ( ( ) r O 1 > > > , > > > > > > > > > > > > > > > > > > > > > > > 1 O r _ Q ( ( | g   3 > X p Q L U L E y O 1 2   j  .~ ( ( ",
"( ( (  .j   2 2 o u X._ _ ( ] g . 2 1   g  .Q ( ( ) y O 1 > > > > > , : > > > > > > > > > > > > > > : > > > > > 1 O t _ ( _ Q  .g   2 2 . d  ._ _ _ | u o 1 2   j  .! ( ( ",
"( ( (  .j   2 1 o u ] ( ( Q ] d . 2 2   g | Q ( ( _ t O 1 > > > > > > > > > > > > > > > > > > > > > > > > > > > 1 O r ] ( ( ~  .g   2 1 . d } ~ ( ( _ u o 1 2   j X.~ ( ( ",
"( ( (  .j   2 1 o u ] ( ( ~  .s . 2 2   g  .Q ( ( _ t O 1 > > > > > : > > > > > > > > > > > > > > > > : > > > > 1 O y ] ( ( Q  .f   2 2 . d } ~ ( ( ] u o 1 2   j  .~ ( ( ",
"( ( ~  .j   2 1 o u ] ( ( ~ } s . 1 1   d  .~ ( ~ ] t O 1 > > > > > > > > > > > > : > > > > > > > > > > > > > > 1 O t ] ( ( Q  .f   2 1 . s } ~ ( ( ] u o 1 2   j  .~ ( ( ",
"( ( ~  .j   2 1 o u ] ( ( ( } a . 2 2   g  .~ ( ( _ r O 1 > > > > > > > > > > > > > > > > > > > > > > > > > > > 1 O t ] Q ( Q  .f   1 2 . s } ~ ( ( ] u o 1 2   j  .~ ( ( ",
"( ( (  .j   2 1 o u ] ( ' (  .s . 2 2   f  .~ ( ( _ t O 1 > > > > > > > > > > > > > > > > > > > > > > > > > > > 1 O t ] Q ( ~  .f   2 1 . d } ~ ( ~ ] u o 1 2   j  .~ ( ( ",
"( ( ~  .j   2 1 o u ] ( W ( ] d . 1 2   f  .Q ( ( _ r O 1 > > > > > > > > > > > > > > > > > > : > > > > > > > > 1 O r ] ( _ ~  .f   2 2 . d } ~ ( ( ] u o 1 2   j  .~ ( ( ",
"( ( ~  .j   2 1 o u ] W ' W } a . 1 2   f  .( ( ( ] y O 1 > > > > > > > > > > > > > > > > > > > > > > > > > > > 1 O t ] ~ _ ~  .f   2 1 . s } ~ ( ( | u o 1 2   j  .( ( ( ",
"( ( (  .j   2 2 o u ] ( ( (  .d . 2 2   f  .Q ( ( ] r O 1 : > > > > > > > : > > > > > > > > > > > > > > > > : > 1 O r ] ~ ~ Q  .f   2 2 . s } ~ ( ( ] u o 1 2   j  .( ( ( ",
"( ( ~  .j   2 1 o u ] ( ( ~ } a . 2 2   g  .~ ( ( ] t O 1 > > > > > > > > > > > > > > > > > > > > > > > > > > > > O t _ ] ~ W  .f   2 1 . d | ~ ) ~ ] u o 1 2   j  .! ( ( ",
"( ( (  .j   2 1 o u | _ ) ) } d . 1 2   d  .~ ( ( ] t O 1 > > > > > > : > > > > > > > > > > > > > > > > > > > > 1 O r } W ( ( } f   2 2 . d  ._ ) ) | u o 1 2   j  .! ( ( ",
"( ( ~  .j   2 > ; 4 r e e e r 4 - > 1   g  .~ ( ( _ r O < > > > > > > > > > > > > > > > > > > > > > > > > > > > 1 O y ) ( ( ~  .f   2 > ; 4 r e e e r 4 ; , 2   j  .! ( ( ",
"( ( (  .j   2 > , ; O + + + + ; > > 2   g  .Q ( ( ) t O 1 > > > > > > > > > > > : > > > > > > > > > : > > > > > 1 O r ) ( ( ~  .f   2 > , ; O + + @ O ; , , 2   j  .~ ( ( ",
"( ( (  .j   2 > > , < < 1 < < < > > 2   f  .Q ( ( ] y O 1 > : > > > > > > > > > > > > > > > > > > > > > > > > > 1 O y ) ( ( ~  .f   2 > > > < 1 < < 1 , > > 2   j  .( ( ( ",
"( ( (  .j   2 > > > > > > > > > > > 2   f  .Q ( ( ] r O 1 > > > > > > > > > > > > > > > > > > > > > > > > > > > 1 O r ) ~ ( W  .f   2 > > > > > > > > > > > 2   j  .( ( ( ",
"( ( ~  .j   2 > > > 1 < < < < > > > 2   f  .( ( ( ) t O 1 > > > > > > > > > > > > > > > > > > > > > > > > > > > 1 O r } ( ( (  .f   2 > > > 1 > < 1 1 > > > 1   j  .~ ( ( ",
"( ( !  .j   2 > > ; @ # @ # @ ; > > 2   f  .W ( ( ] r O 1 > > > > > > > > : > > > > > > > > > > > : > > > > > > 1 O y _ ~ ( !  .f   1 > > ; @ # @ @ @ ; > > 2   j  .! ( ( ",
"( ( (  .j   2 1 O t J S G D J i o 1 2   g | Q ( ( _ t O 1 > > > > > > > > > > > > > > > > > > > > > > > > > > > 1 O t ] ( ( ~  .f   2 1 o a L Z D J J t O 1 2   j  .( ( ( ",
"( ( (  .j   2 1 o u  .] ] ]  .d   1 2   g  .Q ( ( ] t O 1 > > > > > > > > > > > > > > > > > > > > > > > > > > > 1 O t ] ( ( ~  .f   2 2   d  .] ] ]  .u o 1 2   j  .( ( ( ",
"( ( ~  .j   2 1 o u ] ~ ( ~ } a . 2 2   d  .Q ( ~ ] t O 1 > > > > > > > > > > > > > > > > > > > > : > > > > > > 1 O t _ ~ ( ~  .f   2 1 . s ] ( ( ~ ] u o 1 2   j  .~ ( ( ",
"( ( ~  .j   2 < o u ] ~ ( ( } d . 1 2   g  .~ ( ( _ r O 1 > > > > > > > > > > > > > > > > > > > > > > > > > > > 1 O t ) ( ( ~  .f   2 1 . d ] ( ( ~ ] u o 1 2   j  .! ( ( ",
"( ( ~  .j   4 3 O u ] ( ( ~ } d o 3 3 . g } Q ( ) _ t # 1 1 1 1 1 1 1 1 1 1 1 1 > 1 1 1 1 1 1 1 1 1 1 1 1 1 1 1 2 # t ) ~ ( ~  .g X 3 3 o d } ~ ( ~ ] u O 3 4   j  .( ( ( ",
"( ( ~  .h   $ #   t ] ( ( ~ } p   # $   d } ( ( ~ _ w   @ O O O O o o O O O o O O O O o O O O o O O o O O o o O @   w ) ( ( ~ } d   $ #   p | ~ ( ( ] t   # %   h  .( ( ( ",
"( ( ( ) L Z D Z V J ] ( ~ ) ) G Z Z Z V J ) ( ( ) ( G Z D Z Z Z D D D V Z Z D V Z D V Z Z Z D G D Z D Z D D Z D D V G ) ( ( ( ( G V Z Z Z J ) ( ( ( ) G V V V N J ] ( ( ( ",
"( ( ( ( ] ] } ] ] ] ( ( ) ~ ) ) ] } } } ] ) ( ( ) ~ | _ _ } _ } _ } _ } } ] ) } _ } } } _ } _ _ } ] } ] _ } _ } _ _ } ~ ( ( ( ( _ } } _ ] ] ( ( ( ( ( ]  .] ] ] ] ( ( ( ( ",
"( ( ( ( ( ~ ( ! ! ~ ) ( ( ( ( ! ~ ~ ~ ~ ~ ~ ) ~ ~ ) ~ ~ ~ ~ ~ ( ! ( ! ! ~ ( ! ( ( ! ( ! ( ! ( ~ ~ ~ ~ ( ~ ~ ~ ( ( ! ( ( ( ( ( ( ( ~ ~ ~ ( ~ ) ( ( ( ( ( W ( ( ( ( ( ( ( ( ",
"( ( ( ( ( ( ( ( ( ( ( ( ( ( ( ( ) ( ) ( ) ) ~ ) ) ~ ) ~ ) ( ~ ) ( ( ) ( ( ( ( ( ( ( ( ( ( ( ( ( ( ( ( ( ) ( ( ( ( ( ( ( ( ( ( ( ( ) ( ( ) ~ ( ( ( ( ( ( ( ( ( ( ( ( ( ( ( ",
"( ( ( ( ( ( ( ( ( ( ( ( ( ( ( ( ( ( ( ( ( ( ) ~ ~ ) ~ ) ~ ) ) ~ ( ( ( ( ( ( ( ( ( ( ( ( ( ( ( ( ( ( ( ( ( ( ( ( ( ( ( ( ( ( ( ( ( ( ( ( ( ( ( ( ( ( ( ( ( ( ( ( ( ( ( ( ( "
};
