/* XPM */
static char *db46f1c902fa4b8e9d06ea2c4e20823dCFmITgr1cNmFNECy[] = {
/* columns rows colors chars-per-pixel */
"85 91 91 1 ",
"  c #000000",
". c #0C0000",
"X c #130000",
"o c #1E0000",
"O c #210000",
"+ c #270009",
"@ c #28000B",
"# c #2C0014",
"$ c #2F0019",
"% c #32001C",
"& c #360D22",
"* c #371123",
"= c #381625",
"- c #3A1927",
"; c #3B1D29",
": c #3E232C",
"> c #40272E",
", c #41282F",
"< c #422B31",
"1 c #463336",
"2 c #483537",
"3 c #493738",
"4 c #4B3B3B",
"5 c #4F403F",
"6 c #504140",
"7 c #5A4F4B",
"8 c #5C514C",
"9 c #5F5650",
"0 c #605751",
"q c #655D55",
"w c #696259",
"e c #6E685E",
"r c #726E63",
"t c #767266",
"y c #7A7669",
"u c #7D7A6D",
"i c #848273",
"p c #8D8D7C",
"a c #939382",
"s c #999A87",
"d c #9B9C89",
"f c #9FA18D",
"g c #A3A691",
"h c #AAAD97",
"j c #ABAE99",
"k c #AEB19B",
"l c #B2B69F",
"z c #B3B7A0",
"x c #B6BAA3",
"c c #B8BDA5",
"v c #BEC3AA",
"b c #C0C5AC",
"n c #C6CCB2",
"m c #C9CFB4",
"M c #CED5B9",
"N c #D0D6BB",
"B c #D4DBBF",
"V c #D6DDC1",
"C c #DBE3C5",
"Z c #DEE6C8",
"A c #E1E9CA",
"S c #E1EACB",
"D c #E2EACC",
"F c #E4ECCD",
"G c #E5EDCF",
"H c #E6EFD0",
"J c #E7F0D0",
"K c #E7F0D1",
"L c #EAF3D3",
"P c #EBF3D4",
"I c #EBF4D4",
"U c #ECF4D4",
"Y c #ECF4D5",
"T c #ECF5D5",
"R c #EDF5D5",
"E c #EDF6D6",
"W c #EEF7D7",
"Q c #EEF8D7",
"! c #EFF8D7",
"~ c #EFF8D8",
"^ c #EFF9D8",
"/ c #F0F9D8",
"( c #F0F9D9",
") c #F1FBDA",
"_ c #F3FCDB",
"` c #F3FDDC",
"' c #F5FFDD",
"] c #F6FFDE",
"[ c #F8FFE0",
"{ c #FBFFE3",
"} c #FCFFE4",
/* pixels */
":::::::::::::::::::::::::::::::<<<<<<<<<<<<<<<<<<<<<<<:::::::::::::::::::::::::::::::",
"::::::::::::::::::::::::::::::>@OOOOOOOOOOOOOOOOOOOOO@:::::::::::::::::::::::::::::::",
"::::::::::::::::::::::::::::::;ettttttttttttttttttttte;::::::::::::::::::::::::::::::",
":::::::::::::::::::::::::::::<+Z'~~(!(((~~~~((((~((~_Z@<:::::::::::::::::::::::::::::",
":::::::::::::::::::::::::::::<@C(RRRRRRRIIRRIRIIRIRI(C@<:::::::::::::::::::::::::::::",
":::::::::::::::::::::::::::::<@C(RRRRRRR~I~R~I~~R!~I(C@<:::::::::::::::::::::::::::::",
"::::::::::::::::::::::::;<2313&C(RR!!RRRI~RRRR~IR!II_C&3122<:::::::::::::::::::::::::",
"::::::::::::::::::::::::<O     C(RRRRRR!~I~RR!I~!I!I_C     O<::::::::::::::::::::::::",
":::::::::::::::::::::::<OizhkkhF(RRRRR!RRR~R~I~IRRRRRHhkkjziO<:::::::::::::::::::::::",
":::::::::::::::::::::::2 c}`'''!RRR!R(RR~RRRI~I~RR~RR~'''`}c 2:::::::::::::::::::::::",
":::::::::::::::::::::::1 z`PIII!RRRRRR!RRRRR~I~IR~RRRRRRIL`l 2:::::::::::::::::::::::",
":::::::::::::::::::::::2 z'IRRRRRR(RRRRR~RR~I~I~RRRR!RRRRR'l 2:::::::::::::::::::::::",
"::::::::::::::::::::1<14 z'IRRRRRRRRRR/RRRI~I~!IRRRRRRR!RP'l 4<1<::::::::::::::::::::",
"::::::::::::::::::<=XXX+ k[I!RR_('(`(RRRR~~I~IR~``((_(RRRP'l @XXX=:::::::::::::::::::",
":::::::::::::::::<@eVVVVBD~RRI~dyiiyd(RRR~I~I~I(dyiiyd(RRR~DVVVVCe@<:::::::::::::::::",
":::::::::::::::::<oy'`__((RR~R(e OO e(RRRR~I~II~e OO e(RRRR(_('('yO<:::::::::::::::::",
":::::::::::::::::<Ot(RRRRRRRRR(y#24#y_I~~I~I~IR(y#12#y~I!I~II!IIRtO<:::::::::::::::::",
":::::::::::::::::<Ot(RRIRRRRRR(to<,Ot~III~I~I~R(tO<<Oy~!I!EIIIII(tO<:::::::::::::::::",
":::::::::::::::::<Oy`~(((!RRRR(to<<Ot`R~~I~I~II(tO<<ot_R!I!!~~~~'yo<:::::::::::::::::",
":::::::::::::::::<OrGAAAAK~RRR(yO<<Ot~IRI~I~I~R(tO<1Ot~II!!KZDFFGrO<:::::::::::::::::",
"::::::::::::::::::::::;1 l'PRR(yO:<Ot`IR~I~IR~I(tO<<Ot~RRP'l 2:::::::::::::::::::::::",
":::::::::::::::::::::;:1 l'RRR(to2<ot~R~I~I~RRI(tO1<Ot(RRR'l 2:::::::::::::::::::::::",
":::::::::::::::::::::::2 l'IRR(tO:<Ot~II~I~IRRR(tO<<oy(IRR'l 1:::::::::::::::::::::::",
":::::::::::::::::::::::1 z'IRR~u$44%u(R~I~I~!RR(u$34$y(RRI'l 1:::::::::::::::::::::::",
":::::::::::::::::::::::1 z'IRR(q    w~RR~I~I~IR(w    q(RRI'l 1:::::::::::::::::::::::",
":::::::::::::::::::::::2 l'IRR(xfggfz~RRR~I~I~R~lfggfx(RRI'l 1:::::::::::::::::::::::",
":::::::::::::::::::::::1 l'IRRR''''''RRRRR~R~I~I''''''RRRI'l 2:::::::::::::::::::::::",
":::::::::::::::::::::::1 l'IRRRIIIIIRRR~RRRRI~I~PPPYYYRRRR'z 1:::::::::::::::::::::::",
":::::::::::::::::::::::1 l'LRRRRRRRRRRR~RR!RRR~RRRRRRRRRRP'z 1:::::::::::::::::::::::",
":::::::::::::::::::::::1 l'LRIPR~~RRRRRRR~RR~RRRRR~RRRRRRL`z 1:::::::::::::::::::::::",
":::::::::::::::::::::::2 x}(''_RRRR~R~RRRRRRRR~RR~RRR('''([x 2:::::::::::::::::::::::",
":::::::::::::::::::::::<%eappppZ~RRRRRR~R~RR~RRRRRRR(Dipppae%<:::::::::::::::::::::::",
":::::::::::::::::::::::::#   X C`PRRRRRR!RRRRRR!R!RR_C X   #,::::::::::::::::::::::::",
":::::::::::::::::::::::::<1112%C(R~RR!R~RRR!!RRRRRRR(C%2<22<:::::::::::::::::::::::::",
":::::::::::::::::::::,:<:::::<@C(RRRRRRRRRRRRRRRRRRR(C@<::::,,:::::::::::::::::::::::",
":::::::::::::::::::;%%%%%-::::@Z'R~~(~~~!((/!~(~~~~~_Z+<:::-%%%%%::::::::::::::::::::",
":::::::::::::::::::1888786;::,@VIGJGGKKGGKGKHHGHGGKGIB@<::;487878<:::::::::::::::::::",
":::::::::::::::::<otRIIK(l 1:::34444444444444444444442:::2 l_ILLRtO<:::::::::::::::::",
":::::::::::::::::<oy(RRR'z 1::>-==-==--=========-====-:::2 z'RII_yO>:::::::::::::::::",
":::::::::::::::::<ot(RRR'z 1:::>:>:>::>:>::>>>>:>::,,::::1 l'IRR(tO<:::::::::::::::::",
"::::::::::::::1113$y(RRI'z 4131<111111<3111<1<21112<11<114 z'YRR(u$3111>:::::::::::::",
"::::::::::::::     w(RRI'k X                             X z'RRR(w     ::::::::::::::",
":::::::::::::=pdddaj~RRR`maddssdsssssssssdddsssddsdsdsdsddpm(RRR~jadsdp*:::::::::::::",
"::::::::::::<+G]_''_RR!RI~``'''_''''''''__''''''_''_'''''''(RRRRR`''`[D@<::::::::::::",
":::::::::::::@C~IIIRRRRRRIIIIIIIPPRIIIRRRPRYPIRIPRPPIIIRRRRRRRR(~IIII~C@<::::::::::::",
"::::::::::::<@C_IRRRR!!R~R~I~RRRRRRRRRRRRRRRRRRRRRRRRRRRRRRRRRRRI~RRI~C@<::::::::::::",
"::::::::::::<@C(RRRRRRRRRRRRRRRRPPPPRRRRRRRRRRR~RPRIIRRRRRRRRRRR~IRRI`C@<::::::::::::",
"::::::::::::<@C_RR~RRR!RR~R~RRR`''''`RRRRRR~R~RR`'''''~RRR(RRR~RI~I~I(C@<::::::::::::",
"::::::::::::,@C(R~R~I~I~I~I~RR~jaddaj~I~~I~I~RR~haddak!R!RI~I~I~I~IRR~C@<::::::::::::",
"::::::::::::<@Z(IRRR~I~I~I~I~I(w    w(III~I~I~I~w    w(IRR~R~I~I~RR~R`C@<::::::::::::",
"::::::::::::<@C(RRRRI~I~I~I~RI~u$33$u~I~~I~I~II`y$33$y(R!RRRI~I~~RRIR(C@<::::::::::::",
"::::::::::::,@C(I~RR~I~I~I~I~R~tO11Ot~I~I~I~I~I~yO1<Ot_IRR!R~I~IRI~~R(C@:::::::::::::",
"::::::::::::<@C(RRR~~RRI~RR~II~tX::Xt~RI~I~II~I`tX::Xt(RRR~R~RR~RRRRI`C@<::::::::::::",
"::::::::::::,@Z(I~!IIPPPPII~R~~u=66=u~R~I~I~~II~u=55=u(R~RRILLLPIRR~R(C+<::::::::::::",
"::::::::::::<@C(IR`C4889=x'III~KGKGGKI~I~I~II~I~GGKKGKRRRI'x-9886C(RI`C@<::::::::::::",
"::::::::::::,@C(RR~CX*&: z'I~R~R!~~!~~I~I~I~~I~I!~!~~!RRRI'l :%*.C`RI(C@:::::::::::::",
"::::::::::::<@C(RR_C#<:3 z'YRR~RRRRRR~I~R~RR~RI~RRRRRRRR~I'z 3<<#C~IR`C@<::::::::::::",
"::::::::::::<@Z(IR~C@<:3 l_RRRIRRR!R!I~IRRRR~R~IRR~RRRRRIP(l 1:<@C_IR~C@<::::::::::::",
"::::::::::::<@C(IR(C@<:3 x}(('_R!RRRI~I~RRRRRRRRR~RR~R__`(}x 3:<@C`IR~C@<::::::::::::",
"::::::::::::<@C(II_C@::1 dVMMNMP!IR~~I~I~R~RRR~RRRRRRPMNMMVf <:<@C(RI`C@<::::::::::::",
"::::::::::::<@C(RR(C+,::<@     V`II~I~I~RRRRRRRRRRRR(C     +<:::@C(II_C@:::::::::::::",
":::::::::::::@C_IR_C@,:::<1113&C~I~I~I~IR~~RRR~RR~RR(C&1111<:::<@C`I!(C@<::::::::::::",
"::::::::::::<+C_IR(C+<:::::::<@C`II~I~I~RRRRR~~RRRRR(Z+,:::::::<@C`II~C@:::::::::::::",
"::::::::<3133&Z~RR(C@<::::::::@C_I~I~I~I~RRR~RRR~RRR(C@<:::::::<@C~II`C*4313<::::::::",
"::::::::O     C(RR(C@<:::::::<@C_EEEEEEEEEEEEEEEEEEI~C+::::::::<@C`II_C     O<:::::::",
"::::::1XanvbbvK(RR(C@::::::::<@C^EEEEEEEEEEEEEEEEEEE_C@<:::::::<@C~I~!KvbbvnaX<::::::",
"::::::3 c}('''RRRR(Z@<:::::::<@C^EEEEEEEEEEEEEEEEEEI~C@<::::::::@C~IRRR'`''}x 2::::::",
"::::::1 l`PRPIRRRR(C+<::::::::@C~EEEEEEEEEEEEEEEEEEE^Z#:::::::::@C`~RRRIPPL`l 1::::::",
"::::::1 l'PRRRR~RR(C@<:::::::<@C`EEEEII!EEEEEEEE~IQI^C@<::::::::@C(R!R~RRRR'l 1::::::",
"::::::1 z'PRR~RRRR(C+<:::::::<+C^IEEEI~IEEE!EEEEIQIQ`C+<:::::::<@C_RRRRRR~I'l 2::::::",
"::::::1 l'RRR~RRRR(C@<::::::::+C^EE^EE~!EIEEEIEE~III~C+::::::::<@C~IR~R~RRI'l 1::::::",
"::::::2 l'RRRRRRRR(Z+<:2 hIZDGZIE^I~C9wwwwwqwww9Z^QQ~~ZFAZKk 1:<@C`IRRRRRRI'l 2::::::",
"::::::1 l'IR!RR!RR(C@<:1 x[R(((REEE^C $#####@#% C`IEE~~~~~[x 1:<@C(IRRRRRRR'l 1::::::",
"::::::1 l'RRRRRRRR_C@,:3 l'PRYRREEI^C$2::1::1:1$C^I~EEIIEI`z 1:<@C_RRR~R~RI'l 1::::::",
"::::::1 l'IIRRRRRI(C@<:1 l'IRR~RIE^^C@:::::::::@C~I~EEEEII'z 1:<+C~IRRRRRRP'l 2::::::",
"::::::3 x}(((____('Z@,:1 l'IRRRRE^^^C+2::::::::@C`IIEEEEII`z 1:<+Z'``(~'_~~}x 2::::::",
"::::::1 gCBVVVVVVVCn$,:2 z'IRRRR~EI^A@2::::::::@C`I~~IEE~I`z 1:<$nCVVVVVVVVZg 2::::::",
"::::::::$.XXXXXXXXXO:::1 z'I(RR(I~E!Z@::::::::1@C~IIEEEE~I`z 1:::oXXXXXXXXX.$<:::::::",
"::::::::,<1<<<<<<1<<:::1 z'L(LRRIR!~C+::::::::<@C~E!EEEEII`z 1:::<1<<<1<<<<<:::::::::",
"::::::::::::>>>>:::::::1 l'RL(L(~RI~Z+::::::::<@C`I!EEEE~I'z 1::::::::::::<::::::::::",
"::::::::::::::::::::3216 x'PRRRRRRR'C@,:::::::<@Z(RRRRRRRR'z 6132,:::::::::::::::::::",
":::::::::::::::::::&     h'PRRR~RRR(C@<::::::::@C(R~~~RRRR'j     *:::::::::::::::::::",
":::::::::::::::::<%0cxcczV(RRRRRRRR'C@<:::::::<@C(RRRRR~RR(Vlcxxc0%::::::::::::::::::",
":::::::::::::::::<oy[`'''(RR~~RRRRR(C@<:::::::<@Z(RRRRRRRRR(''''[uo<:::::::::::::::::",
":::::::::::::::::<Ot!IIIIRRRRR~RRRR(C@,::::::::@C(RRRRRRRR~RIIIIRtO<:::::::::::::::::",
":::::::::::::::::<Ot~IRRRR!RRR~RRRR(C@<:::::::<@C(RRRRRRRRRRRRRR(tO<:::::::::::::::::",
":::::::::::::::::2ot(RRRRRRIRRRRRRR(C@<:::::::<+C(RRRRRRRRRRRRRI(tO<:::::::::::::::::",
":::::::::::::::::<oy_~~(((((~((~((R'Z+<:::::::<+Z'((((((((((((~!'to1:::::::::::::::::",
":::::::::::::::::>;4tttttttttttttttte;::::::::>;etttttttttttttttt4=::::::::::::::::::",
":::::::::::::::::::-oOOOOOOOOOOOOOOO@:::::::::::@OOOOOOOOOOOOOOOO-<::::::::::::::::::",
"::::::::::::::::::::<<<<<<<<<<<<<<<<<:::::::::::,<<<<<<<<<<<<<<<<::::::::::::::::::::"
};
