/* XPM */
static char *_f8d1f8dbc98494af66fa74e90cf4d79di3G9szNKv38OaTJ[] = {
/* columns rows colors chars-per-pixel */
"85 84 95 2 ",
"   c #000000",
".  c #0B0000",
"X  c #150000",
"o  c #1B0000",
"O  c #230002",
"+  c #270009",
"@  c #29000D",
"#  c #2C0014",
"$  c #2F0018",
"%  c #31011B",
"&  c #340620",
"*  c #350A21",
"=  c #371123",
"-  c #391525",
";  c #3A1927",
":  c #3C1E29",
">  c #3E232C",
",  c #40262E",
"<  c #41282F",
"1  c #432C32",
"2  c #473336",
"3  c #483537",
"4  c #493638",
"5  c #4B3B3B",
"6  c #4F403F",
"7  c #544644",
"8  c #554845",
"9  c #655D55",
"0  c #6B655B",
"q  c #6F6A5F",
"w  c #726D62",
"e  c #767266",
"r  c #787468",
"t  c #7E7B6E",
"y  c #807D6F",
"u  c #817F71",
"i  c #868575",
"p  c #8D8C7C",
"a  c #929281",
"s  c #979886",
"d  c #999A88",
"f  c #9FA18D",
"g  c #A1A38F",
"h  c #A3A590",
"j  c #A7A994",
"k  c #A8AB96",
"l  c #ADB19B",
"z  c #B1B59E",
"x  c #B7BBA3",
"c  c #BABEA6",
"v  c #BDC2AA",
"b  c #C1C6AD",
"n  c #C2C8AE",
"m  c #C6CCB2",
"M  c #C8CEB4",
"N  c #CCD2B7",
"B  c #CED5B9",
"V  c #D0D7BB",
"C  c #D3DABE",
"Z  c #D6DEC1",
"A  c #D8DFC2",
"S  c #DAE2C5",
"D  c #DCE3C6",
"F  c #DDE5C7",
"G  c #DFE7C9",
"H  c #E0E8C9",
"J  c #E3EBCC",
"K  c #E3EBCD",
"L  c #E6EFCF",
"P  c #E6EFD0",
"I  c #E7EFD0",
"U  c #E7F0D1",
"Y  c #E8F1D1",
"T  c #EAF2D3",
"R  c #EBF3D4",
"E  c #EBF4D4",
"W  c #ECF4D4",
"Q  c #EDF6D5",
"!  c #EDF6D6",
"~  c #EEF7D7",
"^  c #EEF8D7",
"/  c #EFF8D7",
"(  c #EFF8D8",
")  c #EFF9D8",
"_  c #F0F9D8",
"`  c #F1FAD9",
"'  c #F2FBDB",
"]  c #F3FCDB",
"[  c #F3FDDC",
"{  c #F4FEDD",
"}  c #F7FFDF",
"|  c #F8FFE0",
" . c #F9FFE1",
".. c #FCFFE3",
"X. c #FCFFE4",
/* pixels */
"! ! ! ! ! ! ! ! ! T ! ! ! ! ! T ! E ! ! ! E ! ! ! ! ! T ! ! ! ! ! W ! ! E ! ! ! ! E ! ! ! E ! ! ! ! ! W ! E ! ! ! E ! ! ! ! ! T ! ! ! ! ! ! ! ! E ! ! ! ! ! ! ! ! ! ! ! ! ",
"! ! ! ` ] ] ` ` ` ` ] ` ` ` ] ` ] ` ` ` ] ` ] ] ` ` ` ` ] ] ` ` ` ` ] ` ` ` ` ` ] ` ` ` ] ` ] ] ` ` ` ` ] ` ` ` ] ` ] ] ` ` ` ` ` ] ` ` ` ` ] ` ` ` ` ` ` ] ` ` ` ! ! ! ! ",
"! / T Z A A A A A A A A A A A A A A A A A A A A A A A A A A A A A A A A A A A A A A Z S A A A A A A A A A A A A A A A A A A A A A A A A Z A A A A A A A A A A A A ! ! ! ! ",
"! ` Z   + o o o o o O o o o o o O o o o o o o o o o O o o o o o o o O o O o o o O o o o o o o o o O o o O o o o o o o o o o O o o o O o o o O o O o o o o o O X O H ` W ! ",
"! ` A + 2 1 1 1 1 1 1 1 1 1 1 1 1 1 1 1 1 1 1 1 1 1 1 1 1 1 1 1 1 1 1 1 1 1 1 1 1 1 1 1 1 1 1 1 1 1 1 1 1 1 1 1 1 1 1 1 1 1 1 1 < 1 1 1 1 1 1 1 1 1 1 1 1 1 1 1 1 J / E ! ",
"! ` A o 1 > > > > > > > , , , : > > > > > > > > > > > > > > > > > > > > > > > > > > > > > > > > > > > > > > > > > > > > > > > > , , , : > > > > > > > > > > > : < H ` ! ! ",
"! ` S o 1 > > > 1 4 3 2 2 3 2 2 2 2 3 2 2 2 3 2 2 3 3 2 2 3 2 > > > > > 1 3 2 2 2 2 2 4 2 2 3 2 2 3 2 2 2 3 2 2 2 4 1 > > > > > 2 2 3 2 2 2 3 2 2 2 3 1 > > > > > J / ! ! ",
"E ` Z o 1 > > < X                                             , : > > 1 .                                             1 > > : <                       O < > > : > J / ! ! ",
"! ] A o 1 > 2 X g m v b b b b b b b b b b b b b b b b n v m l + 1 > 1 X h m v b b b b b b b b b b b b b b b b b b m k O 1 > 1 o k m b b b b b b b b M a X 1 , > > J [ ! ! ",
"! ` A o 1 > 3   M ..] { { { { { { { { { { { { [ { { [ [ ] ..S   1 > 4   B ..] { { { { { { { { { { { { { { { { { ` ..Z   2 > 2   B ..] [ { { { { { ` ..x   2 , : > J ) R ! ",
"! ` Z o 1 > 2   b ] T E E E ! R E E E E ! T ! E ! T E E T ` C . 1 , 2   m ` T W W W W W T E ! T ! T E E ! E E E T ` B   2 > 2   N ` T T ! E W W ! T { z   2 , : > J ) ! ! ",
"! ` S o 1 > 2   b { E ! ! ! ! ! ! ! ! ! ! ! ! ! ! ! ! ! ! ] C   1 , 2   M ] W ! ! ! ! ! ! ! ! ! ! ! ! ! ! ! ! ! ! ` B   1 > 2   N ] ! ! ! ! ! ! ! T { z   3 , : > J ) E ! ",
"! ] A o 1 > 2   n { E ! ! ! ! ! ! ! ! ! ! ! ! ! ! ! ! ! E [ V . 1 , 2   M { W ! ! ! ! ! ! ! ! ! ! ! ! ! ! ! ! ! ! ] B   2 > 2   N { ! ! ! ! ! ! ! W { z   2 , : > L ) ! ! ",
"T ` A o 1 > 3   n { E ! ! ! ! ! ! ! ! ! ! ! ! ! ! ! ! ! E [ Z   1 , 2   M ] W ! ! ! ! ! ! ! ! ! ! ! ! ! ! ! ! ! E [ V   2 > 2   N ] ! ! ! ! ! ! ! T { z   2 > > > J ) ! ! ",
"! ] A o 1 > 2   n { E ! ! ! ! ! ! ! ! ! ! ! ! ! ! ! ! ! ) [ Z . 1 > 2   M { ! ! ! ! ! ! ! ! ! ! ! ! ! ! ! ! ! ! ! ] B   2 > 2   N { ! ! ! ! ! ! ! W { z   2 , > > G ) ! ! ",
"! ` A o 1 > 2   n { E ! ! ! ! ! ! ! ! ! ! ! ! ! ! ! ! ! E [ V   1 , 2   m ] T ! ! ! ! ! ! ! ! ! ! ! ! ! ! ! ! ! E ] B   1 > 2   N ] W ! ! ! ! ! ! W { z   2 , : > L ) / ! ",
"! ` A o 1 > 2   n [ E ! ! ! ! ! ! ! ! ! ! ! ! ! ! ! ! ! ! ` V . 1 , 2   M { ! ! ! ! ! ! ! ! ! ! ! ! ! ! ! ! ! ! ! ` V   2 > 2   N ] ! ! ! ! ! ! ! T { z   3 , > > J ) ! ! ",
"! ` A o 1 , 2   b ] T E E E E E E E R ! E E E E ! ! T E T ` B . 1 , 2   m ` T ! E E T ! E ! T ! E E E E E ! E E E ` B   2 > 2   M ` ! W W W W W W T ] z   2 > : > J ) E ! ",
"! ` A o 1 , 3   M X.{ { { { { { { { { { { { { { { { { { ] ..S   1 , 3   N ..` { { { { { [ { { { { { { { { { { { ] ..C   2 > 2   V ..{ { { { { { { ] ..x   3 > > > P ) ! ! ",
"! ` A o 1 , 1 X g m v b b b b b b b b b b b b b b b b b b m l + 1 , 1 X g m b b b b b b b b b b b b b b b b b b b m j O 1 > 1 o k m b n b b b b b v M a X 1 > : > G ) E ! ",
"! ` A o 1 > : 1 X                                             , : > > < .                                             , > > : 1                       O < > > > > L ) ! ! ",
"! ` A o 1 > > > 1 2 2 2 2 3 2 2 2 2 2 2 3 2 2 2 2 2 2 2 3 2 2 : > > > > 1 4 3 3 3 2 2 2 2 2 3 2 3 3 2 2 2 2 2 2 2 2 2 > > > > : 1 4 3 2 2 3 2 2 2 3 3 1 > > > : > L ) E ! ",
"! ` A o 1 > > > > > > > > > , , > > > > > > > > > > > > > > , , > > > > > > > > > > > > > > > , > > > > > > > > > > > > > > > > > > > > > > , , > > > > > > > > > J ) ! ! ",
"! ` A o 1 > > > 1 1 1 1 1 1 1 1 1 1 1 < > > > > > 1 1 1 1 1 1 1 1 1 1 1 1 1 1 1 1 1 1 1 1 1 1 , > > > > > 1 1 1 1 1 1 1 1 1 1 1 1 1 1 1 1 1 1 1 1 1 1 < > > > : > J ) E ! ",
"! ` A o 1 > > , # X O o o o o o o o X $ > > > > > + X O o o o o o o o o O o o o o o o o O o X % > > > > > O o o o o o o o O o o o O o o o o o o o o X % > > > > > L / ! ! ",
"! ` A o 1 > 2   z G Z A Z S S Z S Z H z   2 > 1 # M D Z A A A A A S A A A A A A Z S A A A Z H j   2 > > = N D A Z S S Z Z S S Z C S S Z A S A A Z S G f   2 > > > J / ! ! ",
"! ` A o 1 > 2   m ..` ` ] ` [ ` ] ` { b   4 > > + H { ` [ ` ` [ ` ` ` ` ` ` ] ] ` ` ] ` ` ` ..c   4 > > % L { ` ] ` ` ` ` ` ` ` ] ` ] ` ` ` ` ` ] / ..x   3 > > > J ) ! ! ",
"! ] A o 1 > 2   v [ T ! E ! E ! W W { c   2 > 1 @ S ` ! E ! E E ! W ! ! ! ! ! ! ! E ! ! ! T [ x   2 > > * G ) R ! ! ! ! ! ! ! ! W ! W ! ! ! ! ! ! E { z   2 > > > L ) ! ! ",
"! ` A o 1 , 2   n { E ! ! ! ! ! ! W { v   2 > 1 @ D ` T ! / ! ! ! ! ! ! ! ! ! ! ! ! ! ! ! E { c   4 > > * G ` E ! ! ! ! ! ! ! ! ! ! ! ! ! ! ! ! ! ! [ z   2 > > > G / W ! ",
"! ` A o 1 > 3   n { E ! ! ! ! ! ! W { v   3 > > @ S ` ! ! ! ! ! ! ! ! ! ! ! ! ! ! ! ! ! ! E { x   4 > > * G ) ! ! ! ! ! ! ! ! ! ! ! ! ! ! ! ! ! ! E { z   3 > > > G / ! ! ",
"! ` Z o 1 > 2   n { E ! ! ! ! ! ! W { v   2 > 1 # S ` ! ! ! ! ! ! ! ! ! ! ! ! ! ! ! ! ! ! E { x   4 > > * H ` E ! ! ! ! ! ! ! ! ! ! ! ! ! ! ! ! ! T { z   3 > > > U / / ! ",
"! ` A o 1 , 2   n [ E ! ! ! ! ! ! T { v   3 > 1 @ S ` ! ! ! ! ! ! ! ! ! ! ! ! ! ! ! ! ! ! E { x   5 > > % G ` ! ! ! ! ! ! ! ! ! ! ! ! ! ! ! ! ! ! ! { z   2 > > > I / ! ! ",
"! ] A o 1 > 3   n { E ! ! ! ! ! ! R { v   2 > > @ S / ! ! ! ! ! ! ! ! ! ! ! ! ! ! ! ! ! ! T { x   3 > > & G ` ! ! ! ! ! ! ! ! ! ! ! ! ! ! ! ! ! ! E { z   3 , > , H ! ! ! ",
"! ` A o 1 > 2   n { E ! ! ! ! ! ! ! { v   4 > 1 @ S ` ! ! ! ! ! ! ! ! ! ! ! ! ! ! ! ! ! ! E { x   3 > , * G ` E ! ! ! ! ! ! ! ! ! ! ! ! ! ! ! ! ! E { z   2 > : , J ( ! ! ",
"! ` Z o 1 > 2   b ] T E E E ! E R T [ c   4 > < # S / E T E ! ! W W W W W W W T ! ! E E E T ] x   2 > > * G ) E E E E ! ! ! E E ! ! E E R ! T ! ! T ] z   2 , > > J ` ! ! ",
"! ` S o 1 > 3   M ..{ { { { { { { [ X.n   4 > 1 + H ..] { { { { { { { { { { { { { { { { { ] ..v   3 > < $ L ..{ [ { { { [ { { { { { { { { { { { [ ] X.x   2 , : , H ) ! ! ",
"! ` Z o 1 > < @ i k g h h h h h h g k i + 1 > > = s j g h h h h h h h h g h h h h h h h h g k t + 1 > > : d h h h h h h h h h h h h h h h h h h g g k t + < , : , F ! ! ! ",
"! ` A o 1 > > < X                     o 1 > > > <                                             O < > > > >                                             O < > , : , L / ! ! ",
"! ` A o 1 > , : 1 2 2 2 2 2 2 2 2 2 2 1 : > > > > 2 2 2 2 2 1 2 2 2 2 2 2 2 3 2 2 2 2 2 2 2 2 1 > > > > > 2 2 2 2 2 2 2 2 2 2 2 2 2 2 2 2 2 2 2 3 2 2 1 > > > > > J ! ! ! ",
"! ] A o 1 > > , , , , , 1 > > > , , , , , , , , > , , , , , , > > > > > > , , , , , > , < > , < > < > < , , > , , > > > > > > > > > < < < > > < , , , , > > > : > J ` ! ! ",
"! ` A o 1 > > , ; * * * * * * * * * * * * * * * * * * * * * ; , > > > > ; * * * * * * * % = * * * * * * * * * * * * = > > > > > ; * * * * * % = * * * ; , > , : > J / ! ! ",
"! ` A o 1 , > : 5 8 7 7 7 7 7 7 7 7 7 7 7 7 7 7 7 8 7 7 7 8 5 > > > > : 5 8 7 7 7 7 7 7 7 7 8 8 7 7 8 7 7 7 7 7 7 8 7 : > > > > 5 8 7 7 7 7 7 7 7 7 8 4 : > , : < J / ! ! ",
"! ` A o 1 > 2   v ! L T U U T U T T U U U U T U T U U T U ! B . 1 > 2   n / I T T T T T Y Y I T T I U U U T T U T ! N   1 > 2   M / L T T T I T T U ) l   2 > > > J ` T ! ",
"! ` A o 1 > 3   m | T ) / ! / / ! / / / / / / / ( ` ! ) E ] Z   2 > 2   M { ! ! ! / ! / / / / ! / / / / / / / / ! ] B   2 > 2   N ] ! / / / ! / / E ..z   2 , : > J / / ! ",
"! ` S o 1 > 2   v { E ( / R / R ) R ) R / E / E ) R ) R E ` C . 1 > 2   M { T ! ! ! ! ! ! ! ! ! E / E / ! ! ! ! E [ B   2 > 1   N ] ! ! ! ! ! ! ! E { z   2 > : > J ) ! ! ",
"! ` A o 1 > 2   m { E ! E ) E ) R ) R ) E / E / R ) R ) E ] Z   1 > 2   m { W ! ! ! ! ! ! ! ! ! / E / E ! ! ! ! ! [ B   2 > 2   N ] ! ! ! ! ! ! ! E { z   3 , > > J ) ! ! ",
"! ` Z o 1 > 3   v { E R ) R ) R ) R ) R ) E / E ) R ) E E [ C . 2 > 2   m { W ! ! ! ! ! ! ! ! ! E ) E ) ! ! ! ! ! ] B   2 > 2   N ] W ! ! ! ! ! ! E { z   2 > > > J ) ! ! ",
"! ` S o 1 > 2   m [ E ) R ) R ) R ) R ) E / E / E ) E ! E [ C . 1 > 2   M { W ! ! ! ! ! ! ! ! ! ) E ) E ! ! ! ! E ] B   1 > 2   N ] ! ! ! ! ! ! ! ! { z   2 , : > P ) ! ! ",
"! ` Z o 1 > 2   n { E / E ) R ) ! ! ! ! ! ! ! ! ! ! ! ! ! ` V   1 > 2   m ] W ! ! ! ! ! ! ! ! ! E ) R ) ! ! ! ! ! ` B   2 > 2   M ] W ( ! ! ! ! ! R { z   2 > : , H / ! ! ",
"! ` A o 1 > 3   n { E E ) R ) R ! ! ! ! ! ! ! ! ! ! ! ! ! ] C . 2 > 2   M { W ! ! ! ! ! ! ! ! ! ) R ) R ! ! ! ! ! [ B   2 > 2   B { W ! ! ! ! ! ! R { z   3 , > , K / ! ! ",
"! ] A o 1 > 2   n [ E / ! ) R ) ! ! ! ! ! ! ! ! ! ! ! ! ! ` C   1 > 2   m { W ! ! ! ! ! ! ! ! ! R ) R ) ! ! ! ! ! ] B   2 > 2   N { ! ! ! ( ! ( ! E { z   2 , : > J ` ! ! ",
"! ` A o 1 > 2   n ] E E R E E R E ! ! ! ! E ! E E ! E ! ! ` C . 1 > 2   M ` T ! E ! E ! R ! ! ! E E E R E ! ! ! T ` B   1 > 2   N ` T ! W R R E ! R { z   2 , > > J ! ! ! ",
"! ` A o 1 , 4   m ..` ` [ ] ) ` / ` ` ` ` ] ` ] ` ` ` ` ` ..A   2 > 3   N { ` ` ` ` ] ` ` ` ` ` [ [ ` ` ] ` ` ` / { C   2 > 2   V { ` ` ] ` ] ` ` ) ..x   2 > : > J / W ! ",
"! ` A o 1 > < % 0 u t u t t t t t i t t t t t u t t t u t t w - > > , * q u t t t t t t y y t t t t t t t t u t t i w * > > 1 * w u t t t t t y t t u 9 & > > > < J ` ! ! ",
"! ` A o 1 > > , # X X o o X X X o X X o X o X X X X o o X X + > > > > > @ X o o X o X X X o X o X X X o X o X o X X + , > > > > + X o o X X X o X o X % , > > : > J ( R ! ",
"! ` A o 1 > > > > 1 2 1 1 1 1 1 1 1 1 1 1 1 1 1 1 1 1 1 1 1 1 < > > > > 1 1 1 1 2 1 1 1 2 1 1 1 1 1 1 2 1 1 1 1 1 1 < > > > > > 1 1 1 1 1 2 1 1 1 1 1 1 > > > > > J / / ! ",
"! ] Z o 1 > > > 1 2 1 1 1 1 1 1 1 1 1 1 > > > > , 1 1 1 1 1 1 1 1 1 1 1 1 1 1 1 1 1 1 1 1 2 1 < > > > > , 1 1 1 1 1 2 1 1 1 1 1 1 1 1 1 1 2 1 1 1 1 1 > > > > > > J ) ! ! ",
"! ` S o 1 > > > # X o X X o o X o X X # > > > > , O X X o o X X X X o X X o X o X X o X X o X $ , > > > , O X X o X X X o X o o X X o X o X o X o X X % > > > : > J ) ! ! ",
"! ` Z o 1 > < & 0 i e t t t t u t t u 0 % > > > ; e u t u t t t y y t t u t u y t t t t u t y 9 % , , > : e u t y t t t t t t t t t t t y y t t y t u 9 % < > > > J ) ! ! ",
"! ` S X 2 > 2   n ..) ] ` ] ` ] ` / ..v   5 > 1 + H { ` ` ` ` ` ] ` ` ` ` ` ` ` ` ) ] ` ] ` ..c   3 , , % J { ` ` ] ` ] ` ] ` ] ] / ] ` ` ` ` ` ] / ..x   3 > > > P ) ! ! ",
"! ` A o 1 > 2   n [ E E E ! E ! ! T ] v   2 > > @ D ` W ! E ! E E ! E ! ! ! ! T E ! E ! ! T ] x   2 > , * G / E E ! E ! ! E ! E E ! E ! ! E ! ! / T ] z   3 > > > J ) ! ! ",
"W ` A o 1 > 2   n [ E ! ! ! ! ! ! E { v   5 > 1 @ F ` ! ! ! ! ! ! ! ! ! ! ! ! ! ! ! ! ! ! ! { x   3 > > & G ) R ! ! ! ! ! ! ! ! ! ! ! ! ! ! ! ! ! E [ z   3 > > > J ) E ! ",
"! ] A o 2 > 2   n [ E ! ! ! ! ! ! E { v   2 > 1 @ S ` W ! ! ! ! ! ! ! ! ! ! ! ! ! ! ! ! ! E { c   4 > > * G ` E ! ! ! ! ! ! ! ! ! ! ! ! ! ! ! ! ! E [ z   3 > > > P ) ! ! ",
"! ] A o 1 > 2   n [ E ! ! ! ! ! ! E { v   4 > > # S ` ! ! ! ! ! ! ! ! ! ! ! ! ! ! ! ! ! ! E { x   2 > < * G ) ! ! ! ! ! ! ! ! ! ! ! ! ! ! ! ! ! ! ! { z   3 > > > G ) E ! ",
"! ` A o 1 > 2   v [ E ! ! ! ! ! ! E [ v   2 > 1 @ S [ E ! ! E ( ! ! ! ! ! ! ! ! ! ! ! ! ! E [ x   2 > > * G ] ! E ) E ) E ) R ) R ) R ) R ) R ) ! T { z   3 > : , K ` ! E ",
"! ` A o 1 , 3   m [ E ) ! ! ! ! ! E { v   4 > 1 @ S ` ! E ( E ! ! ! ! ! ! ! ! ! ! ! ! ! ! E [ v   2 > > * G ) E ) E ) E ) R ) R ) R ) R ) R ) R ! W { z   3 > > , H / ! / ",
"! ` A o 1 > 2   n [ E / ! ! ! ! ! E { v   2 > 1 @ S ] E ( E ( ! ! ! ! / ! ! ! ! ! ! ! ! ! E ] x   4 > > * G ) / E / E / R ) R ) R ) R ) R ) R ) ! ! { z   2 > : > K / ! E ",
"T ` A o 1 > 3   n [ E E ! ! ! ! ! E { v   2 > 1 @ S ` E ! ! ( E ! ! ! E ! ! ! ! ! ! ! ! ! ! [ x   2 > > * G ) E / E / E ) R ) R ) R ) R ) E / R ! ! { z   2 , > < H / ! / ",
"! ] A o 1 > 2   n { / ! / ! / / / ! [ v   2 > > @ F [ ! ! ) ! ) / / / / / / / / / / / / / E { v   2 > > & G ` / / / / / / / / / ! / / / ( / / / / ! { z   2 , > > K / ! / ",
"! ` A o 1 > 2   v ) T I T U T T T I ) v   2 > 1 # Z ! U T U U T T U U U T U T T U I U U I T / z   2 > > * S T T T U I I I T U T U I T U U U U T T L ` l   2 , : > K ! ! ! ",
"! ` Z o 1 > > : 5 8 8 8 7 7 8 8 7 7 8 4 > > > > > 6 8 7 7 7 7 7 8 8 8 8 7 7 7 7 8 7 7 8 8 8 8 5 > > > > > 7 7 7 8 7 7 8 7 7 7 7 8 7 8 7 7 7 7 7 7 7 8 4 : > , : > J ] ! / ",
"! ` S o 1 > > , - * * * = % * % * * % : > > > > > = * * * * * * * * * * * % * * * * * * % = * ; > > > > > = * * * * * * * * * * * * * * * * * * * * * ; , > , : > J / ! E ",
"! ] A o 1 > > > > > < , , , , , , > , > > > > > > > > < < , , , > , , > < , > , , , , , , , < , > > > > > > < , , , , , > > 1 > > > > 1 , , , > < > < > > > > : > J ] E / ",
"T ` A o 1 > > > 1 2 2 2 2 3 2 2 2 2 2 2 2 2 3 3 2 2 2 2 2 2 1 > > > > > 1 2 2 2 2 2 2 2 2 2 2 3 2 2 2 2 2 3 2 2 2 2 1 > > > > > 2 2 2 2 2 2 2 2 2 2 2 1 > > , : > J ) E E ",
"! ] A o 1 > : 1 X                                             < > > > < X                                           . < > > > 1 X                     + 1 : , : > J ] E ) ",
"! ` A o 1 > 1 @ i j g h h h h g h h h h h h g g g h h h h j a % < > < # p j h h h h h h h g g g h h h h h h h g h k p # 1 > > # p j h h h h h h g g j t + 1 > > > J ) E R ",
"! ` A o 1 > 4   N ..] { { { { { { { { { { { { { { { [ [ { ..S   2 > 2   B ..] { { { { { { { { { { { { { { { { { { ..Z   2 > 2   V X.[ [ { { { { { ] X.c   3 , : > L ) ! E ",
"! ` A o 1 > 3   b ] T W ! ! E T ! T ! ! E E ! T ! E E E T ` B . 1 > 2   m ] T T E E ! ! E T W W E ! E E T ! E W R ` B   2 > 2   N ] E E E ! E E ! T ] z   2 > : > L ) R / ",
"! ` A o 1 > 3   n { ! ! ! ! ! ! ! ! ! ! ! ! ! ! ! ! ! ! ! ] C . 1 , 2   m ] W ! ! ! ! ! ! ! ! ! ! ! ! ! ! ! ! ! ! ` V   1 > 2   N [ E E ! ! ! ! ! E [ z   4 > > > J ) ! E ",
"! ` A + 3 1 4   n { T ! ! ! ! ! ! ! ! ! ! ! ! ! ! ! ! ! ! [ Z X 4 1 5   M ] W ! ! ! ! ! ! ! ! ! ! ! ! ! ! ! ! ! ! ` V . 4 1 4   N [ E / ! ! ! ! ! E { z   4 1 1 2 G / ! / ",
"! ` Z   + o $   b { E ! ! ! ! ! ! ! ! ! ! ! ! ! ! ! ! ! ! ` V   # X $   m ] ! ! ! ! ! ! ! ! ! ! ! ! ! ! ! ! ! ! ! ] B   # o #   N { R ! ! ! ! ! ! T { l   # o X o H ) ! / ",
"! ! T A A Z S Z L / ! ! ! ! ! ! ! ! ! ! ! ! ! ! ! ! ! ! ! ! T A S S S C P / ! ! ! ! ! ! ! ! ! ! ! ! ! ! ! ! ! ! ! ! T Z S Z S Z P ! ! ! ! ! ! ! ! ! ` J Z S A S S E ` ! E ",
"! ! ! ` ` ` ` ` ! ! ! ! ! ! ! ! ! ! ! ! ! ! ! ! ! ! ! ! ! ! ! ] ` ` ` ` / ! ! ! ! ! ! ! ! ! ! ! ! ! ! ! ! ! ! ! ! ! ! ` ` ` ` ` ! ! ! ! ! ! ! ! ! ! ! ` ` ` ] ] ] / R ! / ",
"! ! ! ! ! ! ! ! ! ! ! ! ! ! ! ! ! ! ! ! ! ! ! ! ! ! ! ! ! ! ! ! T ! ! ! ! ! ! ! ! ! ! ! ! ! ! ! ! ! ! ! ! ! ! ! ! ! ! E ! ! ! ! ! ! ! ! ! ! ! ! ! ! ! ! ! ! E E E ! ! ! E "
};
